<?xml version="1.0" encoding="utf-8"?>
<!-- Generator: Adobe Illustrator 24.0.2, SVG Export Plug-In . SVG Version: 6.00 Build 0)  -->
<svg version="1.1" id="Layer_1" xmlns="http://www.w3.org/2000/svg" xmlns:xlink="http://www.w3.org/1999/xlink" x="0px" y="0px"
	 viewBox="0 0 1800 1200" style="enable-background:new 0 0 1800 1200;" xml:space="preserve">
<style type="text/css">
	.st0{fill:#211F1F;}
	.st1{fill:#D6559A;}
	.st2{fill:#F2F2F1;}
	.st3{fill:#3A3102;}
	.st4{fill:#5B5249;}
	.st5{fill:#494949;}
	.st6{fill:#403F3F;}
	.st7{fill:#1E1E1E;}
	.st8{fill:#211F1D;}
	.st9{fill:#232123;}
	.st10{fill:#232122;}
	.st11{fill:#242424;}
	.st12{fill:#232323;}
	.st13{fill:#313131;}
	.st14{fill:#FAF57A;}
	.st15{fill:#ECEDAE;}
	.st16{fill:#272310;}
	.st17{fill:#E2DD1F;}
	.st18{fill:#221F1E;}
	.st19{fill:#2C2604;}
	.st20{fill:#3D3D3D;}
	.st21{fill:#584E04;}
	.st22{fill:#FDFDFC;}
	.st23{fill:#382F00;}
	.st24{fill:#403700;}
	.st25{fill:#3C3100;}
	.st26{fill:none;stroke:#D6559A;stroke-width:2;stroke-miterlimit:10;}
	.st27{fill:#582677;}
	.st28{fill:#6C3585;}
	.st29{fill:#F2D577;}
	.st30{fill:#F2D578;}
	.st31{fill:#5A2F70;}
	.st32{opacity:0.21;fill:#A4B7B2;}
	.st33{opacity:0.21;fill:none;}
	.st34{fill:#E9F2EF;}
	.st35{fill:none;stroke:#582677;stroke-width:10;stroke-miterlimit:10;}
</style>
<path class="st0" d="M953.89,934.95c2.04,0.35,3.57,2.31,5.98,1.66c3.86-1.03,7.67-2.22,7.39,4.43c-0.08,2,5.18,2,7.87-0.14
	c2.4-1.91,4.03-4.7,6.93-6.04c1.04-0.48,2.34-1.67,3.03-1.38c1.22,0.53,0.64,2.2,0.64,3.39c0.02,16.47,0.03,32.95-0.02,49.42
	c0,0.84-0.21,2.04-0.77,2.44c-1.18,0.84-2.22-0.01-3.13-0.93c-1.97-1.99-4.02-3.89-5.98-5.88c-1.33-1.35-2.63-2.45-4.78-2.29
	c-2.26,0.17-4.17-0.08-4.06,3.3c0.23,7.14-0.07,14.3,0.12,21.44c0.08,3-1.13,3.6-3.8,3.57c-6.83-0.08-13.66,0.1-20.5,0.17
	c-2.02,0.81-3.96,2.11-6.14,2.19c-22.73,0.86-45.47,0.78-68.2,0.05c-5.55-0.18-8.53-3.65-8.72-9.08
	c-0.7-19.31-0.65-38.63-0.03-57.94c0.21-6.5,4.53-9,10.27-10.17c9.89-2,19.88-1.03,29.83-1.28c6.85-0.17,13.71,0.32,20.55-0.33
	c3.62-0.35,5.66-2.11,5.65-6.01c-0.01-3.87-2.03-5.84-5.65-6.01c-9.63-0.47-19.14-0.63-28.79,1.4c-14.03,2.95-28.32,3.84-42.37-0.67
	c-1.74-0.96-4.09,0.66-5.62-1.98c-3.45-5.93-0.77-10.8,6.83-11.34c4.29-0.3,8.61-0.03,12.92-0.06c4.61-0.03,9.23-0.11,13.84-0.17
	c5.45-2.3,10.65-2.12,16.02,0.73c7.22,3.83,15.21,2.01,22.88,2.17c14.95,0.31,17.46,2.05,20.1,16.9c0.96,5.38,3.58,7.48,8.76,7.22
	C947.96,933.6,951.14,932.83,953.89,934.95z"/>
<path class="st1" d="M849.2,920.27c11.81-0.1,23.62-0.21,35.43-0.29c2.78-0.02,5.61,0.3,7.43-2.58c1.25-1.98,3.34-1.27,5.11-1.28
	c8.71-0.05,17.42-0.09,26.13,0.01c5.27,0.06,6.33,1.1,6.24,6.61c-0.06,3.94,1.83,9.06-1.03,11.47c-2.22,1.88-7.09,0.72-10.78,0.73
	c-12.75,0.05-25.51,0.28-38.25-0.11c-5.29-0.16-10.05,2.54-15.32,1.88c-1.58-0.2-1.82,1.25-1.82,2.54c0,6.84-0.01,13.69-0.01,20.53
	c0,14.31-0.02,28.62,0.01,42.92c0.01,5.04,0.08,5.12,4.91,5.12c23.64,0.03,47.28,0.02,70.92,0.03c1.55,0,3.1,0.15,4.65,0.23
	c-5.14,7.04-12.03,11.77-19.98,15.08c-10.82,4.51-22.11,6.32-33.73,5.11c-9.35-0.97-26.64-10.05-33.76-17.21
	c-4.09-4.12-8.73-7.79-11.32-13.19c-3.32-6.92-7.3-13.67-7.83-21.53c-0.27-3.94-2.43-7.35-2.03-11.53c0.81-8.39,2.4-16.46,5.6-24.31
	c2.51-6.16,5.19-12.12,10.21-16.66C852.06,921.99,848.89,921.58,849.2,920.27z"/>
<path class="st1" d="M953.89,934.95c-4.91,2.18-10.13,1.76-15.28,1.65c-3.9-0.09-5.17-1.58-5.29-5.69c-0.09-3.1,0.14-6.22-0.05-9.31
	c-0.43-6.74-2.97-9.14-9.57-9.18c-9-0.05-18.01,0-27.01-0.02c-2.06-0.01-3.81,0.34-4.97-2.67c-0.6-1.54-4.04-3.29-7.12-2.92
	c-2.44,0.29-4.96-0.03-7.44-0.08c2.86-3.94,7.72-4.57,11.64-5.26c11.51-2.02,22.77,1.33,34.03,3.49c7.38,7.3,18.74,9.54,24.11,19.62
	C948.85,928.15,952.7,930.7,953.89,934.95z"/>
<path class="st1" d="M897.86,959.24c7.16,0,14.33,0.04,21.49-0.02c1.89-0.02,2.81,0.61,2.79,2.62c-0.05,6.23-0.12,12.46,0.04,18.69
	c0.07,2.6-1.11,3.11-3.33,3.1c-14.64-0.04-29.28-0.04-43.91,0.01c-2.24,0.01-3.38-0.55-3.29-3.13c0.25-6.81,0.26-13.62,0.37-20.44
	c6.36-1.9,12.87-0.34,19.29-0.8C893.49,959.1,895.68,959.23,897.86,959.24z"/>
<path class="st1" d="M950.19,966.78c-0.13,1.89-4.33,5.47-6.47,5.51c-3.07,0.06-5-2.45-4.77-6.23c0.19-3.18,2.3-5.29,5.03-5.05
	C946.25,961.22,950.31,964.98,950.19,966.78z"/>
<path class="st1" d="M951.86,983.49c-1.25,0-2.51,0.13-3.74-0.03c-1.56-0.2-1.67-1.45-1.67-2.75c0.01-1.29,0.09-2.65,1.66-2.75
	c2.48-0.17,4.98-0.03,7.48-0.06c1.61-0.02,2.12,0.91,2.11,2.33c-0.01,1.53,0.23,3.23-2.1,3.26
	C954.36,983.5,953.11,983.49,951.86,983.49z"/>
<path class="st1" d="M936.36,983.5c-0.91,0-1.82-0.01-2.73,0.01c-1.49,0.03-2.17-0.75-2.15-2.18c0.02-1.45-0.31-3.2,1.86-3.37
	c1.81-0.14,3.64-0.05,5.45-0.04c2.19,0.01,2.17,1.54,2.16,3.1c-0.01,1.31-0.34,2.36-1.87,2.46
	C938.18,983.55,937.27,983.49,936.36,983.5z"/>
<g>
	<path class="st0" d="M884.33,274.42c-15.04-0.08-30.07-0.15-45.11-0.26c-4.85-0.04-4.96-0.09-4.97-4.41
		c-0.03-29.13-0.04-58.25,0.01-87.38c0.01-4.41,0.14-4.47,4.95-4.5c15.04-0.09,30.08-0.13,45.13-0.19
		c3.15-2.66,6.97-3.03,10.85-3.06c18.56-0.11,37.11-0.28,55.67,0.06c11.09,0.2,13.59,2.65,13.73,13.76
		c0.32,24.95,0.31,49.91,0.01,74.86c-0.14,11.18-2.61,13.65-13.65,13.85c-18.87,0.34-37.75,0.2-56.63,0.05
		C890.75,277.19,887.3,276.66,884.33,274.42z"/>
	<path class="st1" d="M884.33,274.42c22.78-0.09,45.55-0.19,68.33-0.28c2.25-0.01,4.49-0.03,6.74,0c1.67,0.02,2.16-0.95,2.18-2.39
		c0.01-1.28,0.02-2.57,0.02-3.85c0-27.92,0.01-55.84,0-83.75c0-7.08,0.49-6.31-6.02-6.32c-23.74-0.03-47.49-0.09-71.23-0.14
		c-0.19-6.33,5.98-7.45,9.43-9.12c4.14-2.01,8.75-3.99,13.39-5.46c7.12-2.26,14.08-3.01,21.23-2.59c10.85,0.64,20.85,4.07,30.4,9.48
		c8.36,4.74,15.15,11.13,20.21,18.87c4.61,7.05,9.21,14.31,9.86,23.55c0.36,5.19,1.88,10.43,1.54,15.76
		c-0.91,14.51-5.39,27.33-14.67,39.12c-5.66,7.2-12.61,12-19.91,16.2c-12.08,6.95-25.81,10.05-39.55,7.62
		c-10.66-1.89-21.43-5.14-30.18-12.48C884.74,277.48,884.34,276.07,884.33,274.42z"/>
	<path class="st1" d="M869.02,256.71c19.09,0.88,38.03-2.96,57.14-1.82c3.2,0.19,6.45,0.33,9.61-0.03
		c7.34-0.84,14.34,1.6,21.55,1.86c1.55,0.06,2.26,0.82,2.23,2.36c-0.03,1.28-0.01,2.57,0,3.85c0.05,8.97-0.12,9.18-8.91,9.19
		c-23.09,0.02-46.18,0.02-69.27-0.04c-1.65,0-3.98,1.18-4.67-1.72c-3.63-2.22-7.05-4.64-8.5-8.94c-0.29-0.81-0.41-1.65-0.39-2.51
		C867.99,258.04,868.41,257.32,869.02,256.71z"/>
	<path class="st1" d="M888.35,215.33c0-1.92,0-3.84,0-5.76c0.01-9.27,0.03-9.3,8-4.82c5.63,3.17,11.09,6.66,16.86,9.54
		c2.6,1.3,2.79,2.8,0.87,3.98c-7.6,4.66-15.37,9.03-23.18,13.33c-1.01,0.55-2.53-0.08-2.53-1.85c-0.01-4.8,0-9.6,0-14.41
		C888.36,215.33,888.35,215.33,888.35,215.33z"/>
	<path class="st2" d="M869.02,256.71c-0.02,0.69-0.04,1.39-0.06,2.08c-0.77,0.83-2.01,1.93-1.43,2.83c0.74,1.13,0.83-0.89,1.58-0.86
		c2.52,3.19,5.05,6.39,7.57,9.58c-11.81,0.02-23.61,0.08-35.42,0.03c-4.73-0.02-4.74-0.12-4.83-4.58c-0.02-0.96-0.03-1.92,0-2.87
		c0.17-4.84,1.34-6.32,5.96-6.25c4.41,0.07,8.73-0.98,13.25-0.22C860,257.19,864.56,256.67,869.02,256.71z"/>
	<path class="st3" d="M926.6,264.51c-6.74,0-13.49,0-20.23,0c-1.28,0-2.63,0.25-3.84-0.04c-4.04-0.97-6.46,3.85-10.05,3
		c-3.21-0.76-5.77-3.46-9.58-3.08c-1.87,0.18-5.06,1.54-5.58-1.12c-0.24-1.26,3.57-1.21,5.07-0.67c5.23,1.89,7.88-5.82,11.99-3.62
		c3.71,1.99,6.86,3.69,11.27,3.6c14.44-0.29,28.9-0.11,43.35-0.11c0.96,0,1.94-0.11,2.88,0.01c0.56,0.07,1.54,0.5,1.54,0.77
		c0.01,1.04-0.8,1.29-1.77,1.28c-4.5-0.04-8.99-0.03-13.49-0.03C934.31,264.5,930.45,264.5,926.6,264.51z"/>
	<path class="st4" d="M869.12,260.76c-0.01,1.24,0.17,2.52-0.07,3.72c-0.23,1.13,1,3.43-1.43,3.08c-1.28-0.18-2.62-1.62-2.47-3.49
		c0.21-2.54-1.1-6.16,3.82-5.27C869.02,259.45,869.07,260.1,869.12,260.76z"/>
	<path class="st5" d="M841.7,266.32c-1.67-0.55-1.41-1.82-1.48-3.03c-0.15-2.77,1.62-2.88,3.6-2.69c1.73,0.16,2.59,1.57,3.5,2.76
		C847.65,263.79,842.6,266.45,841.7,266.32z"/>
	<path class="st6" d="M849.87,263.73c-0.22-1.77,0.14-3.04,2.24-3.13c1.96-0.08,3.7-0.05,3.58,2.69c-0.07,1.61-0.08,3.13-2.27,3.1
		C851.57,266.37,849.52,266.57,849.87,263.73z"/>
	<path class="st7" d="M863.22,263.35c0,0.63,0.18,1.34-0.04,1.87c-0.38,0.91-1.22,1.44-2.24,1.1c-0.53-0.18-1.3-0.68-1.33-1.08
		c-0.12-1.52-0.59-3.19,0.61-4.51c0.63-0.69,1.44-1.22,2.18-1.83c0.28,0.85,0.64,1.67,0.83,2.54c0.13,0.61,0.03,1.26,0.03,1.9
		C863.24,263.35,863.23,263.35,863.22,263.35z"/>
</g>
<g>
	<path class="st8" d="M597.58,519.67c0.51-0.28,1.01-0.59,1.53-0.84c3.15-1.52,3.56-1.36,3.9,1.66c0.17,1.48,0.17,2.97,0.24,4.46
		c1.92,3.9,2.7,8.01,2.69,12.37c-0.03,21.93,0.13,43.87-0.08,65.8c-0.12,12.12-2.32,14.25-14.62,14.37
		c-19.8,0.18-39.6,0.11-59.4,0.02c-3.98-0.02-7.97-0.11-11.2-3c-8.81-0.04-17.61-0.08-26.42-0.13c-6.4-0.03-6.46-0.04-6.46-6.05
		c-0.03-19.44-0.01-38.87-0.01-58.31c0-3.95,0.31-7.93-0.08-11.84c-0.46-4.54,0.84-8.22,3.93-11.41c0.53-0.65,1.06-1.29,1.6-1.92
		c-0.07-0.61,0-1.2,0.21-1.78c0.29-0.83,0.84-1.45,1.63-1.84c0.31-2.07,1.87-3.08,3.59-3.42c1.74-0.34,3.61-0.14,5.41-0.01
		c2.94,0.2,7.05-1.39,8.56,0.74c2.04,2.87-2.16,5.45-3.05,8.42c-0.4,1.33-1.82,2.33-2.53,3.61c-1.52,2.76-2.88,5.61-4.31,8.42
		c2.84,1.4,5.87,0.43,8.8,0.69c0.59,0.05,1.2-0.09,1.8-0.14c3.26-2.78,5.33-6.71,8.93-9.16c0.26-0.5,0.37-1.04,0.33-1.6
		c0.54-0.68,1.06-1.37,1.66-2c0.08-0.29,0.12-0.59,0.25-0.86c3.37-6.77,8.74-9.62,16.24-8.28c5.81-2.24,7.3,0.23,5.9,5.55
		c-0.69,2.65-2.34,4.93-3.36,7.45c-0.81,1.99-4.18,3.93-1.66,6.1c1.67,1.43,4.78,0.73,7.04-0.13c5.68-2.16,7.41-7.82,10.01-12.46
		c3.71-6.61,8.75-9.72,16.36-8.74c7.05,0.91,8.78,3.85,5.93,10.57c-0.47,1.12-1.26,2.09-1.71,3.21c-0.93,2.31-4.37,4.96-1.2,7.07
		c3.38,2.25,7.08,0.66,9.48-2.69C590.83,528.9,592.67,523.17,597.58,519.67z"/>
	<path class="st1" d="M520.64,614.5c25.79-0.03,51.58-0.11,77.36-0.03c5.85,0.02,4.98-0.76,4.98-4.9c0-24.88-0.01-49.76,0.01-74.63
		c0-3.33,0.17-6.66,0.26-9.99c10.87,8.7,18.22,19.43,21.92,33.16c1.55,5.77,1.28,11.21,1.48,16.79
		c0.58,16.19-5.74,29.72-16.98,41.03c-3.35,3.38-6.49,6.94-10.58,9.71c-7.15,4.85-15.12,7.23-23.32,8.79
		c-2.87,0.55-5.21,2.37-8.48,2.17c-5.03-0.31-9.99-0.49-14.75-2.28c-0.82-0.31-1.53-1.48-2.23-1.42c-8.33,0.67-14.12-4.91-20.53-8.6
		c-2.69-1.55-5.76-3-7.88-5.69C520.85,617.26,520.62,616.01,520.64,614.5z"/>
	<path class="st1" d="M597.58,519.67c-1.36,7.13-7.59,11.79-9.45,18.69c-0.37,1.37-1.86,1.27-3.05,1.27
		c-3.65,0.01-7.31,0.09-10.95-0.03c-2.78-0.09-2.83-1.64-1.49-3.54c2.03-2.88,2.85-6.4,5.26-9.14c1.48-1.68,2.35-4.03,3.07-6.23
		c0.48-1.48,0.02-3.04-2.16-2.98c-0.3,0.01-0.61-0.01-0.91,0c-4.21,0.12-9.17-1.07-12.42,0.76c-3.08,1.74-4.34,6.68-6.46,10.17
		c-0.77,1.26-1.79,2.37-2.58,3.62c-1.52,2.4-2.6,6.58-4.49,6.96c-4.97,1.01-10.28,0.47-15.44,0.32c-1.09-0.03-0.72-1.04-0.24-1.89
		c3.02-5.33,6.03-10.67,8.9-16.08c1.76-3.31,1.62-3.41-2.62-3.88c-0.6-0.07-1.22-0.06-1.82-0.08c3.21-3.59,8.55-2.36,12.03-5.34
		c10.77,0.35,21.82-2.27,32.13,2.89c1.19,0.59,2.28,0.44,3.41,0.64c0.95,1.14,2.67,0.75,3.66,1.83l0,0
		c0.96,1.13,2.69,0.72,3.67,1.81C596.27,519.53,596.92,519.6,597.58,519.67z"/>
	<path class="st9" d="M503.94,514.01c-1.17,0.01-2.6,0.45-3.22-0.88c-0.57-1.22,0.28-2.24,1.14-3.16c3.49-3.75,4.53-8.91,7.47-13.01
		c1.88-2.62,2.83-7.2,5.12-7.91c3.23-1,6.67-2.85,10.24-2.42c2.67,0.32,4.09-2.52,6.8-1.94c1.55,0.33,2.45,1.17,1.84,2.27
		c-4.15,7.46-8.42,14.85-12.86,22.13c-0.66,1.08-2.32,1.86-3.65,2.15C512.54,512.19,508.45,514.11,503.94,514.01z"/>
	<path class="st10" d="M542.82,504.67c-0.81,0.42-1.7,0.69-2.33,1.26c-0.67,0.6-1.05,0.71-1.31-0.1c-0.18-0.55-0.44-1.3-0.22-1.71
		c3.98-7.14,7.93-14.3,12.12-21.31c1.2-2.01,3.05-3.18,5.74-3.78c4.2-0.95,8.72-0.86,12.61-3.27c0.8-0.5,2.73-0.32,3.37,0.32
		c1.19,1.18-0.76,1.68-1.24,2.52c-3.49,6.09-7.7,11.86-10.38,18.27c-1.57,3.74-4.69,5.69-7.07,5.74
		C550.09,502.69,546.9,505.8,542.82,504.67z"/>
	<path class="st11" d="M599.77,488.19c-0.17,2.53-0.7,3.83-3.68,4.09c-2.51,0.22-4.97,1.35-7.56,1.85
		c-3.08,0.59-5.87,2.71-9.17,0.89c1.5-2.81,2.89-5.69,4.52-8.42c2.99-5.02,6.04-10,9.22-14.89c0.82-1.26,1.99-2.33,2.61,0.49
		C596.9,477.56,598.4,482.86,599.77,488.19z"/>
	<path class="st12" d="M495.04,521.22c0,1.1-0.34,1.89-1.63,1.84c-1.14,0.21-2.32,0.3-3.42,0.65c-3.15,1-7.08-0.29-7.7-2.62
		c-1.09-4.08,0.47-8.17,3.44-9.01c4.03-1.13,6.78,0.7,7.65,4.99C493.68,518.53,492.08,520.81,495.04,521.22z"/>
	<path class="st13" d="M493.82,493.85c0.95-0.03,1.72,1.15,1.15,2.27c-2.27,4.41-4.76,8.7-7.27,12.98
		c-1.16,1.97-1.21,0.35-1.88-0.54c-2.45-3.22-0.95-7.58-3.36-10.81c-0.56-0.75,0.51-2.05,1.24-1.88
		C487.22,496.66,489.87,493.78,493.82,493.85z"/>
	<path class="st1" d="M522.24,530.37c-0.57,2.95-3.68,4.31-4.4,7.33c-0.45,1.89-2.59,2.22-4.52,1.84
		C514.1,534.34,517.29,531.5,522.24,530.37z"/>
	<path class="st14" d="M591.94,517.64c-1.44-0.17-3.42,0.74-3.66-1.83C589.73,515.97,591.73,515.02,591.94,517.64z"/>
	<path class="st14" d="M595.61,519.46c-1.44-0.18-3.44,0.79-3.67-1.81C593.39,517.79,595.36,516.88,595.61,519.46z"/>
	<path class="st15" d="M524.22,526.77c0.09,1.2-0.51,1.83-1.66,2C522.43,527.53,522.93,526.82,524.22,526.77z"/>
	<path class="st12" d="M493.19,524.84c0.04,1.11-0.32,1.9-1.6,1.92C491.43,525.54,492.1,525.01,493.19,524.84z"/>
	<path class="st1" d="M546.96,550.6c11.86,0,23.72,0.02,35.57-0.01c2.23-0.01,4.03-0.13,3.99,3.17c-0.15,15.51-0.14,31.01,0,46.52
		c0.03,3.21-1.63,3.23-3.95,3.22c-24.02-0.04-48.04-0.03-72.06-0.03c-0.61,0-1.22,0.04-1.82,0c-2.82-0.18-4.4-1.65-4.41-4.53
		c-0.02-14.59-0.08-29.19,0.03-43.78c0.02-3.36,1.4-4.47,5.24-4.52c7.9-0.11,15.81-0.04,23.72-0.04
		C537.84,550.6,542.4,550.6,546.96,550.6z"/>
	<path class="st16" d="M560.93,577.1c-0.02,9.73-5.73,15.02-15.37,15.67c-5.07,0.34-7.84-2.17-10.84-5.17
		c-3.04-3.04-5.11-6.41-4.94-10.96c0.32-8.35,7.44-15.21,15.92-15.16C555.25,561.52,560.94,567.36,560.93,577.1z"/>
	<path class="st17" d="M540.75,574.69c0.03-0.42,0.21-2.8,0.38-5.19c2.67,0.2,4.77,1.54,6.48,3.46c1.58,1.78,5.9,1.36,5.02,4.61
		c-0.46,1.71-3.49,3.07-5.63,3.85c-1.49,0.55-2.59,1.33-3.75,2.24c-0.58,0.46-1.34,0.71-2.01,1.05c-0.16-0.86-0.43-1.72-0.47-2.58
		C540.7,580.31,540.75,578.49,540.75,574.69z"/>
</g>
<g>
	<path class="st18" d="M1248.39,617.74c-6.65-0.01-13.3-0.03-19.95-0.02c-1.6,0-2.5-0.67-2.3-2.31c0.13-1.05,0.8-1.61,2-1.63
		c2.65-0.04,5.3-0.21,7.96-0.33c0.89-1.45,0.42-3.36,1.47-4.73c3.71-4.83,0.83-5.18-3.25-4.95c-3.08,0.18-5.98-0.59-8.6-2.26
		c-0.68-0.04-1.34-0.13-2-0.29c-13.22-1.81-26.5-0.52-39.73-0.28c-6.74,0.12-9.62-1.81-8.57-8.54c0.75-4.83-2.2-10.26,2.34-14.48
		c11.01-3.32,22.17-2.3,33.33-1.09c4.65,1.48,9.46,1.18,14.24,1.14c31.44-0.27,62.87-0.68,94.31-0.86
		c5.53-0.03,11.18-0.11,12.99,7.06c2.27,8.97-1.56,14.5-11.24,14.93c-13.65,0.61-27.33,0.31-41,0.61c-3.67,0.08-7.58-0.83-10.8,1.74
		c-0.51,5.29,3.63,6.76,7.1,8.79c2.25,1.31,5.68,1.97,5.06,5.46c-0.67,3.79-4.32,4.12-7.26,4.24
		C1265.71,620.31,1256.8,621.83,1248.39,617.74z"/>
	<path class="st1" d="M1248.39,617.74c10.23-0.17,20.46-0.35,30.69-0.47c1.21-0.01,1.91-0.51,2.17-1.55
		c0.28-1.09-0.46-2.54-1.21-2.35c-7.53,1.93-10.91-3.02-14.22-8.24c-0.88-1.39-2.81-2-3.02-3.92c2.84-2.32,6.26-2.26,9.63-2.3
		c15.86-0.18,31.72-0.37,47.58-0.44c2.98-0.01,6.16-0.52,8.51,2.12c-0.69,2.18,1.59,5.41-2.94,6.31c-1.95,0.39-3.42,3.12-5.16,4.73
		c-6.08,5.67-16.75,9.69-25.12,11.97c-7.96,2.17-15.85,2.13-23.77,1.88c-6.43-0.21-12.9-1.3-18.99-3.81
		C1250.6,620.9,1249.14,619.74,1248.39,617.74z"/>
	<path class="st1" d="M1237.01,502.65c7.36-9.28,17.71-12.85,28.82-14.45c5.33-0.77,10.85-0.26,16.29-0.32
		c5.96-0.07,11.47,1.27,17.29,2.94c7.82,2.24,13.72,6.53,19.84,11.07c-2.84,3.2-6.74,2.95-10.44,3c-20.44,0.31-40.88,0.52-61.32,0.6
		C1243.78,505.51,1239.89,505.84,1237.01,502.65z"/>
	<path class="st1" d="M1333.84,518.15c7.23,3.34,7.5,11.07,10.11,17.05c2,4.59,2.23,9.99,4.15,14.88c1.04,2.65,1.22,6.31,0.26,8.97
		c-3.17,8.8-2.93,18.41-7.41,27.02c-1.76,3.38-3.21,6.2-6.36,8.14c-3.8-4.38-2.03-9.8-2.48-14.7c-1.62-17.61-0.83-35.29-1.05-52.94
		C1331.03,523.5,1331.27,520.41,1333.84,518.15z"/>
	<path class="st19" d="M1328.53,600.61c-21.91,0.2-43.82,0.41-65.73,0.61c0.74-4.69,4.27-4.34,7.71-4.37
		c16.69-0.13,33.39-0.31,50.08-0.47c9.97-0.1,9.97-0.1,9.74-10.41c-0.02-1.02-0.09-2.05-0.02-3.07c0.13-2.06-0.62-3.13-2.84-3.03
		c-2.38,0.11-4.77,0.06-7.15,0.09c-34.41,0.34-68.82,0.71-103.23,0.92c-1.94,0.01-4.92,1.97-5.89-1.79c0.47-0.46,0.93-0.93,1.39-1.4
		c4.75-2.6,9.97-2.07,15.06-2.13c28.04-0.35,56.08-0.57,84.11-0.86c3.76-0.04,7.53,0.05,11.18-0.91c5.09-1.89,4.31-6.27,4.29-10.27
		c-0.1-14.21-0.59-28.42-0.26-42.62c0.16-6.8-1.66-11.74-7.9-14.73c3.14-6.29,8.13-2.48,12.46-2.28l0.05,0.05
		c2.31,12.1,1.18,24.35,1.24,36.52c0.09,19.34,1.58,38.69-0.18,58.02l0.02-0.03c-0.85,0.49-1.52,1.2-2.21,1.88
		C1329.81,600.43,1329.17,600.53,1328.53,600.61z"/>
	<path class="st20" d="M1178.48,579.22c-0.59,0.26-1.5,0.38-1.69,0.81c-0.37,0.87-0.48,1.92-0.45,2.89c0.17,5.4,0.42,10.8,0.64,16.2
		c5.32,1.57,10.75,0.43,16.11,0.51c8.88,0.13,17.77-0.13,26.65-0.19c1.56-0.01,3.54-0.75,3.98,1.8c-14.65,0.21-29.3,0.46-43.95,0.62
		c-5.14,0.05-5.26-0.05-5.31-4.71c-0.32-28.97-0.62-57.94-0.84-86.91c-0.04-5.75,1.07-6.78,7.23-6.83
		c16.69-0.15,33.38-0.18,50.07-0.26c-0.07,4.02-3.26,4.88-6.14,6.07c-10.77,1.97-21.67,1.2-32.5,1.18
		c-8.22-0.01-11.64,3.06-11.39,11.43c0.44,14.59,0.44,29.2,0.46,43.79C1181.36,570.32,1181.88,575.2,1178.48,579.22z"/>
	<path class="st21" d="M1226.91,506.9c0.14-1.43,0.82-2.1,2.36-2.04c0.97,0.04,1.62-0.65,1.67-1.72c2.03-0.16,4.06-0.32,6.09-0.48
		c27.41-0.25,54.82-0.5,82.24-0.76c3.24,0,6.49,0.06,9.73-0.01c1.5-0.03,2.45,0.38,2.55,2c-3.22,0.02-6.44,0.1-9.65,0.05
		c-1.49-0.02-2.43,0.41-2.56,2.01c-2.18,2.68-5.28,2.94-8.36,2.99c-25.55,0.41-51.11,0.72-76.66,0.72c-2.06,0-4.07-0.37-5.92-1.37
		C1227.88,507.82,1227.39,507.36,1226.91,506.9z"/>
	<path class="st21" d="M1332.64,598.47c-0.35-31.51-0.71-63.02-1.06-94.53c1.64,0.08,2.03,1.05,2.04,2.54
		c0.01,3.89,0.15,7.79,0.23,11.68c0.25,25.35,0.5,50.71,0.76,76.06C1334.32,595.81,1335.31,597.98,1332.64,598.47z"/>
	<path class="st1" d="M1225.73,601.52c6.09-0.1,12.17-0.22,18.26-0.27c0.61-0.01,1.22,0.4,1.83,0.61c-0.25,0.51-0.41,1.1-0.77,1.51
		c-2.96,3.38-5.96,6.73-8.94,10.09C1233.69,608.58,1228.12,606.43,1225.73,601.52z"/>
	<path class="st21" d="M1330.45,600.32c0.05-1.44,0.83-2.01,2.21-1.88C1332.54,599.79,1331.87,600.49,1330.45,600.32z"/>
	<path class="st22" d="M1178.48,579.22c-0.27-22.43-0.47-44.86-0.9-67.29c-0.07-3.55,0.81-4.62,4.46-4.61
		c14.95,0.05,29.91-0.25,44.86-0.43l-0.09,0.22c1.15,2.22,0.31,4.26-0.54,6.31c-13.41,17.45-16.97,37.24-13.97,58.61
		c0.33,2.33,0.69,4.75-1.19,6.73l0.09,0.32C1200.3,579.13,1189.39,579.18,1178.48,579.22z"/>
	<path class="st19" d="M1326.23,589.53c-0.5,2.78-1.94,4.6-5.13,4.82c-3.77,0.26-6.66-0.99-7.06-3.95
		c-0.25-1.83-1.27-4.61,0.69-5.65c2.61-1.38,5.92-1.27,8.66-0.14C1325.06,585.3,1327.03,586.81,1326.23,589.53z"/>
	<path class="st1" d="M1253.88,590.91c-6.09,0.06-12.18,0.15-18.26,0.13c-0.53,0-1.07-0.66-1.6-1.02c0.54-0.36,1.08-1.03,1.62-1.04
		c12.51-0.18,25.03-0.3,37.54-0.36c0.54,0,1.08,0.67,1.63,1.03c-0.55,0.35-1.09,1-1.65,1.01
		C1266.73,590.8,1260.3,590.84,1253.88,590.91z"/>
	<path class="st1" d="M1306.42,588.61c0.45,0.24,0.87,0.47,1.29,0.7c-0.21,0.22-0.47,0.65-0.62,0.62c-0.46-0.1-0.89-0.38-1.33-0.6
		C1305.96,589.1,1306.17,588.87,1306.42,588.61z"/>
	<path class="st1" d="M1294.41,588.43c0.24,0.47,0.53,0.89,0.63,1.35c0.04,0.16-0.39,0.43-0.61,0.65c-0.22-0.43-0.52-0.85-0.62-1.31
		C1293.78,588.93,1294.19,588.66,1294.41,588.43z"/>
	<path class="st1" d="M1211.12,578.77c-3.78-11.78-1.7-23.93-2.33-35.91c3.51-5.47,2.87-12.51,7.2-17.82
		c3.47-4.25,5.98-9.27,8.91-13.95c3.36-2.76,7.27-3.2,11.48-3.22c27.24-0.16,54.49-0.25,81.72-0.89
		c8.09-0.19,10.78,2.61,10.64,10.58c-0.29,17.02,0.22,34.05,0.34,51.07c0.02,3.28,1,6.99-2.93,9.04
		C1287.81,578.04,1249.46,578.41,1211.12,578.77z"/>
	<path class="st1" d="M1326.15,577.67c0.67-2.14,2.15-3.78,2.1-6.42c-0.4-18.75-0.43-37.51-0.7-56.26c-0.08-5.7-1.38-6.92-7.25-6.87
		c-28.65,0.23-57.29,0.7-85.93,0.62c-3.65-0.01-5.96,3.15-9.46,2.35c0.64-1.32,1.27-2.65,1.91-3.97c30.83-0.39,61.67-0.79,92.5-1.18
		c10.24,0.05,10.24,0.05,10.34,9.86c0.19,19.4,0.32,38.81,0.64,58.21C1330.35,577.31,1329.17,578.3,1326.15,577.67z"/>
	<path class="st1" d="M1323.93,589.36c-1.3,0.97-1.81,3.01-3.9,2.84c-2.53-0.22-1.95-2.22-2.05-3.78c-0.12-1.76,1.04-2.52,2.49-2.26
		C1322.12,586.47,1323.1,587.9,1323.93,589.36z"/>
	<path class="st23" d="M1224.79,564.68c-0.9-0.81-1.72-1.42-2.38-2.17c-1.95-2.23,0.68-2.97,1.61-3.59
		c13.93-9.33,27.94-18.53,41.96-27.71c4.38-2.87,8.85-5.6,13.25-8.44c0.85-0.55,1.48-1.6,2.38-1.9c1.99-0.66,3.27,0.8,4.07,2.24
		c1.36,2.46-1.21,1.3-1.94,1.84c-18.28,13.56-37.45,25.8-56.34,38.45C1226.6,563.95,1225.66,564.27,1224.79,564.68z"/>
	<path class="st24" d="M1261.8,518.32c0.47,2.11-1.11,3.18-2.43,4.05c-6.83,4.51-13.79,8.82-20.64,13.3
		c-2.49,1.63-4.34,3.98-7.27,5.24c-2.57,1.1-2.8-0.94-3.69-1.83c-1.09-1.1-0.55-2.41,0.76-3.27c9.34-6.14,18.65-12.31,28.02-18.42
		C1258.35,516.2,1261.47,516.87,1261.8,518.32z"/>
	<path class="st25" d="M1246.21,567.5c1.47,0.61,0.7,0.52,0.32,0.08c-0.68-0.78-0.83-1.79-0.12-2.7c0.42-0.54,0.85-1.11,1.4-1.48
		c9.03-6,18.08-11.97,27.13-17.95c0.55-0.37,1.16-0.67,1.65-1.11c1.75-1.56,2.11,0.6,3.02,1.14c1.25,0.75,0.53,1.56-0.14,2.29
		c-1.82,1.98-4.1,3.26-6.36,4.7c-6.96,4.43-13.62,9.33-20.32,14.16C1251.38,567.64,1250.2,568.87,1246.21,567.5z"/>
</g>
<path class="st26" d="M1286.64,593.21c0,207.77-168.43,376.2-376.2,376.2s-376.2-168.43-376.2-376.2s168.43-376.2,376.2-376.2
	S1286.64,385.44,1286.64,593.21z"/>
<g>
	<path class="st27" d="M701.15,386.98c19.29,22.76,38.68,45.44,57.81,68.35c5.26,6.3,4.34,14.77-1.71,20.37
		c-14.93,13.8-21.82,19.12-38.34-1.78c-14.94-18.89-30.93-36.95-46.43-55.4c-1.41-1.68-2.61-3.53-3.91-5.3
		c0.53-3.11,2.98-4.67,5.11-6.56c6.4-5.65,12.99-11.1,19.46-16.68C695.36,388.05,697.5,385.34,701.15,386.98z"/>
	<path class="st28" d="M646.87,329.75c0.46,0.09,0.92,0.17,1.38,0.26c7.62,11.48,17.65,21,25.95,31.92c0.09,0.2,0.27,0.41,0.24,0.6
		c-0.95,6.44-16.32,19.17-22.81,18.93c-8.23-11.67-17.09-22.81-27.51-32.63c-8.11-9.54-14.89-20.2-24.1-28.82
		c-1.38-2.61-6.35-2.3-5.51-6.74c0.99-1.87,2.56-2.63,4.64-2.43C615.63,315.72,631.63,321.79,646.87,329.75z"/>
	<path class="st27" d="M651.64,381.45c7.52-6.51,15.05-13.01,22.57-19.52c2.47-1.75,4.66-2.15,6.78,0.71
		c2.76,3.71,5.78,7.22,8.69,10.82c0.72,3.25-1.68,4.89-3.63,6.55c-8.71,7.42-17.27,15.03-26.23,22.14
		c-4.89-3.17-7.93-8.1-11.56-12.43C644.54,385.3,649.81,383.95,651.64,381.45z"/>
	<path class="st27" d="M666.91,409.13c-4.62,0.22-5.01-3.82-6.63-6.62c8.71-8.52,18.45-15.86,27.48-24.02
		c1.6-1.45,3.46-1.74,5.48-0.99c1.41,1.77,2.82,3.54,4.23,5.31c0.67,2.18-0.23,3.74-1.88,5.12c-7.67,6.41-15.2,12.98-22.82,19.45
		C671,408.9,669.3,410,666.91,409.13z"/>
	<path class="st29" d="M693.24,377.51c-9.04,7.64-18.03,15.35-27.16,22.87c-1.55,1.27-2.77,4.48-5.8,2.13c0,0-0.13-0.33-0.13-0.33
		s-0.34-0.04-0.34-0.04c-1.98-3.38,1.4-4.17,2.93-5.52c8.89-7.82,17.94-15.47,26.93-23.17C692.02,373.8,693.07,375.27,693.24,377.51
		z"/>
	<path class="st30" d="M666.91,409.13c10.19-8.77,20.37-17.54,30.56-26.31c2.63,0.15,2.99,2.3,3.68,4.16
		c-9.06,7.61-18.1,15.25-27.21,22.79c-1.63,1.35-2.86,3.43-5.37,3.44C668.01,411.86,667.46,410.49,666.91,409.13z"/>
	<path class="st31" d="M598.13,312.25c7.02-6.03,14.63-11.39,20.97-18.2c-0.77,2.91,1.62,4.41,3.04,6.14
		c8.15,9.93,16.47,19.72,24.74,29.56c-5.08,0.63-9.66-1.53-13.91-3.5C621.57,321,609.08,318.53,598.13,312.25z"/>
	<path class="st32" d="M416.26,172.39c20.81-64.36,89.11-99.5,153.3-78.88c64.01,20.56,99.18,89.52,78.35,153.61
		c-21.28,65.47-89.31,100.72-154.04,79.82C429.79,306.24,395.23,237.43,416.26,172.39z"/>
	<path class="st33" d="M633.36,247.36c-5.34,18.25-18.66,35.63-36.7,49.82c-11.42,8.99-25.08,9.32-38.42,10.2
		c-20.72,1.36-41-1.74-60.43-9.22c-25.55-9.84-48.55-23.44-64.75-46.33c-9.16-12.94-10.53-28.08-10.05-43.18
		c2.01-63.04,50.9-110.02,113.76-108c39.63,1.27,69.63,20.59,89.33,55.11C641.98,183.59,644.59,212.92,633.36,247.36z"/>
	<path class="st34" d="M558.61,114.26c4.68,0.83,8.57,3.48,12.78,5.41c3.83,1.76,5.69,4.55,3.64,8.47
		c-1.84,3.52-4.73,4.61-8.89,2.85c-7.51-3.19-15.21-5.92-23.37-7.17c-16.84-2.59-32.45,1.12-47.42,8.71
		c-1.98,1.01-4.46,3.65-6.46,1.05c-2.31-3.02,0.57-5.38,2.61-7.27c14.87-13.75,32.73-17.53,52.29-15.32
		C548.84,111.56,553.91,112.08,558.61,114.26z"/>
	<circle class="st35" cx="535.99" cy="207.93" r="123.93"/>
	<animateMotion dur="10s" repeatCount="indefinite"
		 path="M753.4,377.2c0,207.77-168.43,376.2-376.2,376.2S1,584.97,1,377.2S169.43,1,377.2,1S753.4,169.43,753.4,377.2z" />
</g>
</svg>
