<?xml version="1.0" encoding="utf-8"?>
<!-- Generator: Adobe Illustrator 24.0.2, SVG Export Plug-In . SVG Version: 6.00 Build 0)  -->
<svg version="1.1" id="Layer_1" xmlns="http://www.w3.org/2000/svg" xmlns:xlink="http://www.w3.org/1999/xlink" x="0px" y="0px"
	 viewBox="0 0 1800 1200" style="enable-background:new 0 0 1800 1200;" xml:space="preserve">
<style type="text/css">
	.st0{fill:none;stroke:#6C3585;stroke-width:31;stroke-miterlimit:10;}
	.st1{fill:none;stroke:#9965A7;stroke-width:13;stroke-miterlimit:10;stroke-dasharray:6.9768,6.9768;}
	.st2{fill:none;stroke:#6C3585;stroke-width:39;stroke-miterlimit:10;stroke-dasharray:73.2565,73.2565;}
	.st3{fill:none;stroke:#6C3585;stroke-width:22;stroke-miterlimit:10;}
	.st4{fill:none;stroke:#9965A7;stroke-width:13;stroke-miterlimit:10;stroke-dasharray:6.9726,6.9726;}
	.st5{fill:none;stroke:#6C3585;stroke-width:39;stroke-miterlimit:10;stroke-dasharray:65.7416,65.7416;}
	.st6{fill:#D45699;}
	.st7{fill:#272515;}
	.st8{fill:#222122;}
	.st9{fill:#201F1F;}
	.st10{fill:#2A2815;}
	.st11{fill:#211F1E;}
	.st12{fill:#252314;}
	.st13{fill:#292615;}
	.st14{fill:#FAF9E4;}
	.st15{fill:#E1DFD7;}
	.st16{fill:#6C651E;}
	.st17{fill:#2A2817;}
	.st18{fill:#625B1C;}
	.st19{fill:#635B1B;}
	.st20{fill:#221F1E;}
	.st21{fill:#2B2715;}
	.st22{fill:#3D3D3D;}
	.st23{fill:#584F18;}
	.st24{fill:#FDFFFC;}
	.st25{fill:#373117;}
	.st26{fill:#3E3817;}
	.st27{fill:#3A3317;}
</style>
<circle class="st0" cx="861.6" cy="416.66" r="174.88"/>
<g>
	<circle class="st1" cx="861.6" cy="416.66" r="139.9"/>
	<animateTransform

	attributeName="transform"
	type="rotate"
	from="360 861.6 416.66"
	to="0 861.6 416.66"
	dur="50s"
	repeatCount="indefinite" />
</g>
<g>
	<circle class="st2" cx="861.6" cy="416.66" r="209.86"/>
	<animateTransform

	attributeName="transform"
	type="rotate"
	from="0 861.6 416.66"
	to="360 861.6 416.66"
	dur="30s"
	repeatCount="indefinite" />
</g>
<circle class="st3" cx="1136.81" cy="741.49" r="122.06"/>
<g>

		<ellipse transform="matrix(0.7071 -0.7071 0.7071 0.7071 -191.3446 1021.0259)" class="st4" cx="1136.81" cy="741.49" rx="97.65" ry="97.65"/>
		<animateTransform

		attributeName="transform"
		type="rotate"
		from="0 1136.81 741.49"
		to="360 1136.81 741.49"
		dur="40s"
		repeatCount="indefinite" />
</g>
<g>

		<ellipse transform="matrix(0.7071 -0.7071 0.7071 0.7071 -191.3446 1021.0259)" class="st5" cx="1136.81" cy="741.49" rx="146.48" ry="146.48"/>
		<animateTransform

		attributeName="transform"
		type="rotate"
		from="360 1136.81 741.49"
		to="0 1136.81 741.49"
		dur="15s"
		repeatCount="indefinite" />
</g>
<circle class="st3" cx="566.28" cy="741.49" r="122.06"/>
<g>
	<circle class="st4" cx="566.28" cy="741.49" r="97.65"/>
	<animateTransform

	attributeName="transform"
	type="rotate"
	from="0 566.28 741.49"
	to="360 566.28 741.49"
	dur="35s"
	repeatCount="indefinite" />
</g>
<g>
	<circle class="st5" cx="566.28" cy="741.49" r="146.48"/>
	<animateTransform

	attributeName="transform"
	type="rotate"
	from="360 566.28 741.49"
	to="0 566.28 741.49"
	dur="15s"
	repeatCount="indefinite" />
</g>
<path class="st6" d="M1854.76,179.64c4.27-6.15,10.87-8.82,17.38-11.6c0.43-0.18,0.94-0.23,1.41-0.23
	c4.83-0.02,9.67-0.15,14.48,0.07c1.66,0.07,3.32,0.95,4.92,1.61c3.85,1.6,7.74,3.25,10.64,6.34c4,4.27,7.8,8.56,9.35,14.63
	c0.88,3.45,1.9,6.73,1.85,10.36c-0.15,9.81-3.36,18.32-10.65,24.97c-3.52,3.21-7.38,6.15-12.33,6.99c-2.15-2.17-1.61-4.96-1.62-7.55
	c-0.06-13.11-0.09-26.22,0.02-39.33c0.03-3.55-1.12-4.74-4.55-4.64c-8.3,0.22-16.6,0-24.91,0.02
	C1858.64,181.26,1856.38,181.58,1854.76,179.64z"/>
<path class="st7" d="M1854.76,179.64c10.94,0.04,21.89,0.07,32.83,0.13c3.92,0.02,4.15,0.25,4.16,4.24
	c0.04,16.26,0.05,32.51,0.07,48.77c-0.06,0.33-0.13,0.66-0.19,0.98c-1.07,1.11-2.18,1.91-3.59,0.5c-0.45-0.41-0.89-0.85-1.45-1.09
	c-0.18-0.08-0.49-0.63-0.73-0.01c0.29,0.1,0.56,0.24,0.84,0.44c2.03,1.82,0.96,2.83-0.96,3.37c-3.8,1.07-6.23-0.72-7.85-4.02
	c-1.23-5.22-0.42-10.52-0.64-15.77c-0.22-5.05-0.73-5.69-5.78-5.8c-6.1-0.14-12.21,0-18.31-0.06c-1.81-0.02-3.64-0.04-5.35-0.8
	c-4.17-3.92-4.9-13.19-1.44-17.9c0.58,0.23,1.01,0.63,1.28,1.19c0.73,1.73,0.61,3.57,0.67,5.38c0.21,5.68,0.47,6,5.93,6.06
	c5.97,0.07,11.94-0.07,17.91,0.05c3.47,0.07,5.29-1.06,5.13-4.84c-0.17-3.81-0.12-7.63-0.01-11.44c0.1-3.44-1.52-4.67-4.81-4.71
	c-6.3-0.07-12.6,0.37-18.89-0.29c-0.57-0.14-1.09-0.38-1.57-0.72c-2.2-3.66,1.72-2.44,2.79-3.49
	C1854.79,179.8,1854.76,179.64,1854.76,179.64z"/>
<path class="st8" d="M1888.73,233.67c0.13,0.65,0.26,1.38,1.07,0.53c0.54-0.56,1.19-0.42,1.82-0.45c0.28,1.54,0.35,2.77-1.64,3.48
	c-1.17,0.41-2.24,0.44-3.35,0.44c-16.15,0.03-32.3,0.02-48.46,0.02c-0.83,0-1.72,0.2-2.48-0.03c-0.92-0.28-1.78-0.91-1.87-2.03
	c-0.07-0.83-0.02-1.66-0.02-2.5c0-16.32,0-32.64,0-48.95c0-0.5-0.02-1,0.01-1.5c0.14-2.26,0.69-2.89,3-2.91
	c5.99-0.04,11.99,0.01,17.98,0.03c-0.08,0.74-0.47,1.13-1.23,1c-1.55-0.26-1.93,0.55-1.78,1.88c-2.27,1.63-4.08,3.45-3.72,6.63
	c0.14,1.25-0.16,2.57-1.26,3.47c-0.78,0.07-1.04,0.51-1.03,1.28c0.03,3.09,0.14,6.18-0.01,9.26c-0.12,2.49,0.29,4.7,2.08,6.52
	c0.33,0.49,0.48,1.02,0.47,1.61c-0.11,5.31-0.07,10.62,0,15.93c0.07,5.17,0.66,5.74,5.72,5.87c4.64,0.12,9.29-0.08,13.94,0.11
	c1.27,0.04,2.56,0.05,3.8,0.38c2.1,0.68,4.15,2.81,6.38,0.25c0.2-0.09,0.4-0.17,0.59-0.26c0.71,0.17,1.75-0.36,2,0.83
	c0.26,1.25,0.97,1.95,2.23,2.22c1.75,0.37,3.09-0.64,4.45-1.35c0.56-0.29-0.25-0.6-0.63-0.64c-0.54-0.06-0.93-0.25-1.02-0.83
	C1886.66,232.83,1887.68,233.1,1888.73,233.67z"/>
<path class="st6" d="M1852.72,182.86c7.82-0.03,15.63-0.07,23.45-0.08c2.49,0,2.54,0.05,2.55,2.31c0.02,6.65-0.02,13.31,0.03,19.96
	c0.01,1.29-0.41,1.72-1.69,1.72c-9.48-0.03-18.96-0.06-28.45,0.02c-1.7,0.01-1.85-0.75-1.81-2.11c0.1-3.65,0.11-7.31,0.15-10.96
	C1848.08,189.68,1847.96,184.97,1852.72,182.86z"/>
<path class="st6" d="M1847.8,210.7c0-0.29,0.01-0.58,0.03-0.86c8.98-0.01,17.97-0.03,26.95-0.01c3.56,0.01,3.92,0.38,3.93,3.93
	c0.03,6.65,0.01,13.31,0.01,19.96l0.01-0.01c-1.61,2.56-3.69,2.33-5.96,1.02c-1.33-0.06-2.66-0.12-3.99-0.18
	c-5.8-3.42-11.69-6.73-15.69-12.43C1850.65,218.64,1848,215.24,1847.8,210.7z"/>
<path class="st6" d="M1885.46,184.83c-1.3-0.38-3.45,0.67-3.51-0.85c-0.12-2.62,2.27-0.74,3.47-1.15c0.85-0.3,1.94,0.03,2.9,0.17
	c0.16,0.02,0.35,0.53,0.34,0.81c-0.01,0.28-0.22,0.76-0.39,0.79C1887.3,184.74,1886.31,184.77,1885.46,184.83z"/>
<path class="st6" d="M1885.14,202.73c0.67,0,1.34-0.06,1.99,0.02c0.5,0.06,1.51-0.37,1.31,0.67c-0.1,0.53-0.86,1.25-1.38,1.31
	c-1.48,0.17-2.99,0.08-4.48,0c-0.48-0.03-0.82-0.39-0.79-1.02c0.03-0.61,0.35-0.91,0.86-0.95
	C1883.47,202.7,1884.31,202.74,1885.14,202.73C1885.14,202.74,1885.14,202.74,1885.14,202.73z"/>
<path class="st6" d="M1884.63,197.74c1.5,0,2.01-0.06,2.49,0.02c0.51,0.08,1.51-0.37,1.32,0.67c-0.09,0.52-0.85,1.24-1.38,1.3
	c-1.48,0.17-2.99,0.05-4.49,0.03c-0.14,0-0.34-0.09-0.41-0.2c-0.16-0.26-0.37-0.55-0.37-0.83c0.01-0.27,0.23-0.75,0.4-0.77
	C1883.33,197.8,1884.48,197.75,1884.63,197.74z"/>
<path class="st6" d="M1884.44,194.77c-0.5,0-1-0.02-1.5,0c-0.83,0.03-1.21-0.39-1.14-1.18c0.05-0.54,0.39-0.84,0.97-0.84
	c1.16,0.01,2.34-0.12,3.49,0.04c0.73,0.1,2.19-0.79,2.07,0.75c-0.07,0.91-1.25,1.43-2.4,1.23
	C1885.45,194.7,1884.94,194.77,1884.44,194.77z"/>
<path class="st6" d="M1884.33,189.74c-0.66,0-1.33,0.06-1.98-0.03c-0.21-0.03-0.44-0.45-0.53-0.73c-0.17-0.54,0.13-1.08,0.58-1.19
	c0.63-0.15,1.33-0.09,1.98-0.02c1.42,0.15,3.01-0.55,4.21,0.52C1889.09,188.73,1886.56,189.79,1884.33,189.74z"/>
<path class="st6" d="M1888.73,233.67c-0.99,0.09-1.97,0.19-2.96,0.28c-1.23-0.7-3.95,0.85-3.73-1.37c0.18-1.75,2.75-0.52,4.24-0.76
	C1887.6,231.62,1888.31,232.52,1888.73,233.67z"/>
<path class="st6" d="M1884.7,219.72c-0.5,0-0.99,0-1.49,0c-0.66,0-1.33,0.01-1.4-0.92c-0.06-0.9,0.48-1.09,1.21-1.09
	c1.49,0.01,2.98,0.02,4.46,0.02c0.47,0,1.08,0.08,1.02,0.58c-0.05,0.4-0.57,0.78-0.96,1.08
	C1886.68,220.06,1885.65,219.58,1884.7,219.72z"/>
<path class="st6" d="M1885.35,207.72c1.11,0.22,3.1-0.43,3.11,0.5c0.01,1.34-1.69,1.8-3.12,1.5c-1.17-0.25-3.29,0.74-3.36-0.76
	C1881.84,206.34,1884.3,208.46,1885.35,207.72z"/>
<path class="st6" d="M1885.13,212.73c0.66,0,1.33-0.06,1.98,0.02c0.51,0.06,1.5-0.35,1.31,0.66c-0.09,0.52-0.86,1.23-1.38,1.29
	c-1.47,0.17-2.97,0.08-4.46,0c-0.48-0.03-0.83-0.39-0.79-1.01c0.03-0.6,0.34-0.91,0.85-0.94
	C1883.48,212.69,1884.31,212.74,1885.13,212.73C1885.13,212.73,1885.13,212.73,1885.13,212.73z"/>
<path class="st6" d="M1884.39,224.71c-0.66,0-1.35,0.11-1.97-0.03c-0.48-0.11-0.7-0.68-0.58-1.19c0.06-0.28,0.32-0.71,0.52-0.73
	c0.99-0.08,1.98-0.11,2.97-0.03c1.11,0.09,2.37-0.46,3.31,0.46c0.4,0.39-2.12,1.5-3.75,1.52
	C1884.72,224.71,1884.55,224.71,1884.39,224.71z"/>
<path class="st6" d="M1885.57,227.72c0.65,0,1.3,0.02,1.94-0.01c0.51-0.02,0.86,0.18,1.09,0.61c-0.43,0.16-0.85,0.44-1.29,0.46
	c-1.46,0.06-2.92,0-4.37,0.06c-0.55,0.02-0.83-0.21-1.05-0.64c0.41-0.17,0.82-0.43,1.25-0.47
	C1883.94,227.65,1884.76,227.71,1885.57,227.72C1885.57,227.71,1885.57,227.71,1885.57,227.72z"/>
<path class="st6" d="M1840.6,226.84c1.22-0.13,2.81,0.06,2.81,1.25c0,0.91-1.78,1.24-2.9,1.61c-1.33,0.44-1.96-1.04-3.2-1.03
	c-0.67,0.01-0.19-0.72,0.07-1.06C1838.24,226.52,1839.48,226.89,1840.6,226.84z"/>
<path class="st6" d="M1840.5,214.7c-1.17,0-2,0.06-2.82-0.02c-0.5-0.05-0.85-0.36-0.81-0.99c0.04-0.58,0.31-0.92,0.85-0.95
	c0.83-0.05,1.67-0.15,2.48-0.01c1.19,0.19,3.32-0.72,3.4,0.75C1843.74,216.19,1841.17,213.76,1840.5,214.7z"/>
<path class="st6" d="M1840.27,202.69c1.04,0.69,3.43-1.31,3.33,1.22c-0.06,1.59-2.19,0.92-3.22,0.74c-1.17-0.2-3.48,1.43-3.4-1.09
	C1837.03,201.99,1839.12,203.03,1840.27,202.69z"/>
<path class="st6" d="M1840.84,207.74c0.88,0.29,2.69-0.82,2.78,0.79c0.13,2.27-1.93,0.92-3,1.15c-0.95,0.2-1.98,0.09-2.97,0.01
	c-0.5-0.04-0.84-0.41-0.78-1.02c0.06-0.56,0.32-0.91,0.88-0.92C1838.75,207.72,1839.74,207.74,1840.84,207.74z"/>
<path class="st6" d="M1840.77,197.69c1.01,0.32,2.75-0.74,2.88,0.83c0.19,2.29-1.88,1.18-2.88,1.16c-1.29-0.02-3.68,0.88-3.71-0.72
	C1837.02,196.71,1839.5,198.14,1840.77,197.69z"/>
<path class="st6" d="M1840.52,194.86c-1.39-0.44-3.46,0.64-3.51-0.95c-0.07-2.47,2.22-0.89,3.39-1.08c1.03-0.17,3.15-0.84,3.22,0.74
	C1843.72,196.24,1841.21,193.77,1840.52,194.86z"/>
<path class="st6" d="M1840.13,189.77c-0.65,0-1.29,0.01-1.94,0c-0.66-0.01-1.29-0.05-1.34-0.95c-0.04-0.87,0.48-1.08,1.2-1.08
	c1.62,0,3.24-0.01,4.85,0.03c0.51,0.01,0.8,0.35,0.85,0.92c0.05,0.58-0.26,1-0.72,1.04C1842.08,189.83,1841.1,189.76,1840.13,189.77
	C1840.13,189.76,1840.13,189.77,1840.13,189.77z"/>
<path class="st6" d="M1840.41,184.76c-1.03-0.66-3.46,1.34-3.39-1.18c0.04-1.52,2.17-0.61,3.35-0.8c0.81-0.13,1.66-0.04,2.49,0
	c0.54,0.03,0.84,0.34,0.89,0.92c0.05,0.61-0.28,0.98-0.77,1.04C1842.16,184.83,1841.32,184.76,1840.41,184.76z"/>
<path class="st6" d="M1840.36,217.71c0.83,0,1.66-0.01,2.48,0.01c0.58,0.01,0.82,0.37,0.88,0.92c0.06,0.59-0.26,1.01-0.75,1.04
	c-1.32,0.08-2.65,0.02-3.97,0.05c-0.96,0.02-1.83-0.59-1.88-1.28c-0.1-1.3,1.12-0.57,1.76-0.72c0.47-0.11,0.99-0.02,1.48-0.02
	C1840.36,217.69,1840.36,217.7,1840.36,217.71z"/>
<path class="st6" d="M1840.03,233.84c-0.99-0.25-2.9,0.6-2.91-0.59c-0.02-1.41,1.8-1.54,3.18-1.43c0.66,0.06,1.32,0.02,1.98,0.01
	c0.66-0.01,1.36-0.07,1.42,0.87c0.09,1.29-0.86,1.12-1.66,1.14C1841.39,233.85,1840.73,233.84,1840.03,233.84z"/>
<path class="st6" d="M1840.99,224.72c-0.83,0-1.7,0.16-2.47-0.05c-0.56-0.16-1.3-0.73-1.42-1.25c-0.24-1.03,0.75-0.71,1.27-0.72
	c1.49-0.04,2.98-0.01,4.47,0.01c0.58,0.01,0.82,0.38,0.88,0.92c0.06,0.59-0.25,0.97-0.75,1.04c-0.65,0.1-1.32,0.02-1.98,0.02
	C1840.99,224.7,1840.99,224.71,1840.99,224.72z"/>
<path class="st7" d="M1872.78,234.74c2.02-0.15,4.17,0.46,5.96-1.02c0.25,1.74-0.61,2.77-2.23,3.01
	C1874.87,236.97,1873.27,236.81,1872.78,234.74z"/>
<g>
	<path class="st9" d="M1978.74,226.69c-3.94-3.14-7.74-6.43-10.36-10.82c-2.15-3.62-3.6-7.47-3.7-11.78
		c-0.11-5.24,0.4-10.22,2.91-15.04c4.1-7.84,10.62-12.44,18.73-15.11c1.51-0.5,3.28-0.22,4.93-0.21c2.82,0.02,5.63,0.12,8.45,0.19
		c14.54,1.45,24,17.23,22.25,30.75c-0.17,1.32-0.3,2.63-1.39,3.59c-4.29,1.81-8.93,2.09-13.44,2.75c-3.62,0.53-5.09,2.06-5.12,5.75
		c-0.03,4.05,0.92,8.23-0.92,12.16C1994.91,232.86,1985.48,231.91,1978.74,226.69z"/>
	<path class="st6" d="M2020.61,207.66c0.03-2.8,0.02-5.6,0.1-8.4c0.15-5.38-2.39-9.78-5.13-14.09c-3.7-5.81-9.37-8.81-15.74-10.78
		c-0.08-0.03-0.09-0.3-0.13-0.46c2.49-0.05,4.99-0.18,7.48-0.15c12.55,0.18,21.69,6.04,27.84,16.83c3.16,5.55,4.98,11.52,4.56,17.87
		c-0.59,9.07-3.93,17.07-10.6,23.5c-0.67,0.65-1.37,0.82-2.21,0.82c-2.1-1.98-1.47-4.59-1.54-6.99c-0.11-3.63,0.03-7.26-0.07-10.89
		c-0.05-2.06-0.35-3.99-2.67-4.8C2021.53,209.56,2020.32,209.18,2020.61,207.66z"/>
	<path class="st6" d="M2018.62,238.74c-4.21,1.27-8.43,2.44-12.9,2.02c-2.72-3.56-1.38-7.7-1.44-11.55
		c-0.18-12.97-0.07-12.98,12.68-14.87c7.18-1.07,8.11-0.28,8.19,7.04c0.02,1.66-0.1,3.33,0.02,4.98c0.32,4.25-0.46,7.91-4.62,10.14
		C2019.71,236.96,2019.18,237.92,2018.62,238.74z"/>
	<path class="st10" d="M2018.62,238.74c0.11-0.97-1.61-1.54-0.73-2.58c0.92-1.08,1.65-2.68,3.46-2.41c2.11,0.32,2.46-0.67,2.42-2.51
		c-0.1-4.81-0.02-9.62-0.04-14.43c-0.01-1.87-0.75-2.57-2.3-2c-3.35,1.22-6.84,1.56-10.34,1.96c-0.64,0.07-1.31,0.03-1.94,0.18
		c-3.44,0.86-3.46,0.88-3.46,4.41c0,6.47,0.02,12.93,0.03,19.4c-3.41,3.57-5.22,3.82-8.32,1.19c-0.72-0.61-0.69-1.4-0.76-2.2
		c-0.2-0.67-0.18-1.47,0.38-1.79c4.35-2.48,4.63-6.66,4.68-10.96c0.02-3.82,0.03-7.64,0.01-11.45c-0.02-3.08,1.54-4.53,4.5-4.76
		c5.53-0.42,10.89-2.28,16.5-2c0.49,0,0.99-0.03,1.48-0.01c2.42,0.08,2.46,0.08,2.48,2.29c0.05,7.24,0.08,14.48,0.11,21.73
		c-0.03,0.33-0.07,0.65-0.08,0.98C2026.51,239.66,2024.13,241.12,2018.62,238.74z"/>
	<path class="st6" d="M2002.72,227.76c0.01,2.44-0.02,4.87,0.03,7.31c0.02,1.16-0.29,1.58-1.59,1.79c-1.81,0.29-3.71,0.86-4.52,2.9
		c-0.66,0-1.45,0.23-1.97-0.04c-5.12-2.65-10.41-5.11-14.16-9.73c-0.77-0.95-1.19-2.19-1.77-3.3c1.54-0.29,2.95,0.67,4.05,1.22
		c4.62,2.32,9.45,1.74,14.27,1.85c1.37,0.03,2.25-1.37,3.65-1C2001.26,228.19,2001.56,227.12,2002.72,227.76z"/>
	<path class="st6" d="M1992.52,209.81c-5.01-0.03-7.89-3.1-7.87-8.37c0.03-5.09,3.64-8.84,8.29-8.62c3.85,0.18,8.83,4.89,8.54,8.78
		c-0.13,1.83-0.78,3.97-2.51,5.55C1996.18,209.69,1996.31,209.83,1992.52,209.81z"/>
	<path class="st6" d="M2002.72,227.76c-0.67,0.33-1.34,0.66-2.02,1c0.01-4.66,0-9.31,0.04-13.97c0.02-3.14,1.09-4.83,4.05-4.92
		c5.38-0.17,10.46-2.15,15.83-2.21c0.11,1.47,1.25,1.03,2.1,1.14c-0.04,0.56-0.41,1-0.9,0.95c-5.74-0.57-11.02,2.4-16.74,2.11
		c-1.74-0.09-2.38,1.25-2.36,3C2002.78,219.15,2002.72,223.46,2002.72,227.76z"/>
	<path class="st6" d="M2007.69,222.6c0-1.09,0.02-1.92-0.01-2.75c-0.02-0.62,0.37-0.85,0.83-1.04c0.14-0.06,0.33-0.03,0.5-0.02
		c1.8,0.11,3.61-0.37,5.39,0.19c-0.48,1.85-2.3,2.57-3.35,3.94c-0.2,0.26-0.46,0.48-0.71,0.7c-0.74,0.67-1.97,2.02-2.13,1.9
		C2007.14,224.75,2007.87,223.43,2007.69,222.6z"/>
</g>
<g>
	<path class="st11" d="M1163.7,690.96c6.15-0.02,12.3,0,18.46-0.08c2.11-0.03,3.27,0.65,3.26,2.97c-0.02,2.62,0.16,5.24,0.25,7.87
		c2.36,6.58,2.63,13.4,2.58,20.32c-0.13,19.14-0.08,38.28-0.02,57.42c0.02,4.85-0.43,9.55-2.54,13.98
		c-0.57,6.18-5.27,5.21-9.31,5.37c-3.13,1.88-6.55,2.77-10.18,2.81c-13.65,0.14-27.3,0.14-40.95,0c-3.63-0.04-7.04-0.95-10.18-2.8
		c-9.84-0.06-19.69-0.07-29.53-0.2c-5.26-0.07-6.39-1.06-6.4-6.01c-0.05-32.51-0.05-65.03,0-97.54c0.01-4.06,0.16-4.17,4.78-4.17
		c14.02-0.02,28.04,0.06,42.05,0.1c4.68,4.89-0.42,5.37-3.02,5.58c-5.89,0.47-11.64,1.22-17.16,3.36
		c-16.37,2.06-16.36,2.06-16.77,18.67c-0.07,2.96-0.02,5.95-0.7,8.87c-0.55,2.34-2.06,4.4-2.43,6.73
		c-1.71,10.58-0.79,16,10.36,15.65c4.92-0.15,8.29,1.32,4.59,7.57c-2.09,3.53-2.53,8.28,1.03,11.62c2.53,2.37,6.2,3.01,9.23,1.2
		c4.32-2.57,5.46-6.9,4.21-11.67c-0.78-2.95-2.25-6.17,1.63-7.66c4.08-1.57,8.34-1.97,10.4,3.41c0.12,0.86,0.13,1.72,0.04,2.59
		c-0.36,3.61-2.42,7.61,1.45,10.45c4.13,3.04,7.67,0.09,11.23-1.73c4.18-2.53,7.66-3.22,9.89,2.58c1.91,4.97,2.67,9.3-3.04,12.17
		c-3.55,1.79-7.27,2.23-11.3,2.09c-11.01-0.38-22.02-0.48-33.03-0.99c-1.79-0.08-3.59,0.15-5.11,1.18
		c-0.44,0.21-1.06,0.91-0.96,0.99c0.84,0.64,1.83,0.07,2.8,0.15c14.33-0.03,28.87-1.68,42.85,0.58c9.76,1.58,18.51,1.05,27.46-1.65
		c-3.31-2.25-7.72-1.36-10.73-4.12c-2.62-2.41-3.89-4.9,0.21-6.88c6.57-3.18,8.46-7.58,5.1-14.41c-2.46-4.98,0.58-7.5,5.23-7.46
		c7.13,0.06,8.33-3.95,8.01-9.78c-0.75-13.58,1.48-27.25-1.38-40.75c-2.03-2.98-5.4-1.9-8.13-2.72
		C1165.23,695.8,1161.52,695.53,1163.7,690.96z"/>
	<path class="st6" d="M1185.68,793.43c-0.11-13.06-0.33-26.11-0.32-39.17c0.01-17.52,0.19-35.03,0.3-52.55
		c3.75,5.48,9.15,9.57,12.46,15.5c6.33,11.32,10.24,23.4,8.43,36.22c-1.45,10.25-4.41,20.43-10.52,29.26
		C1193.15,786.85,1189.43,790.14,1185.68,793.43z"/>
	<path class="st6" d="M1115.07,798.81c20.44,0,40.87-0.01,61.31-0.01c-3.9,7.02-11.26,7.27-17.8,8.83
		c-3.6,0.86-7.49-0.37-11.14,1.74c-1.53,0.89-4.66,0.84-6-0.18c-2.82-2.13-5.8-0.76-8.55-1.49
		C1126.36,805.96,1118.99,805.8,1115.07,798.81z"/>
	<path class="st12" d="M1106.21,697.97c2.9-2.33,6.31-3.25,9.94-3.39c2.98-0.11,5.96-0.06,8.94-0.01c5.56,0.09-0.22-2.59,0.89-3.57
		c12.58-0.01,25.15-0.03,37.73-0.04c0.12,1.62-0.56,3.69,2.33,3.61c3.23-0.08,6.46,0.07,9.68-0.04c2.88-0.09,2.24,1.97,2.38,3.59
		c-0.42,0.39-0.84,0.78-1.25,1.18c-4.44,2.26-9.25,1.68-13.93,1.63c-17.43-0.18-34.86,0.62-52.29-0.41
		C1108.89,700.11,1107.29,699.49,1106.21,697.97z"/>
	<path class="st13" d="M1126.02,755.76c-0.24-1.58,0.6-3.81-2.35-3.72c-2.09,0.06-4.18-0.07-6.26,0.03
		c-2.37,0.12-3.02,1.49-1.35,3.42c1.57,1.82,3.72,3.46,2.64,6.06c-1.29,3.1-0.86,6.74-3.51,9.43c-3.91,3.96-14.1,3.49-17.17-1.17
		c-1.74-2.63-0.6-5.75-0.77-8.64c-0.18-3.25-0.42-6.66,4.12-7.37c0.35-0.06,0.62-0.69,0.92-1.05c-0.5-0.25-1-0.69-1.51-0.7
		c-2.68-0.06-5.37,0.06-8.05-0.02c-7.41-0.23-9.9-2.68-9.87-9.88c0.02-4.75-1.11-9.86,3.45-13.47c0.88,0.7,1.53,1.57,1.94,2.61
		c2.4,14.34,2.4,14.36,17.27,14.36c19.76,0,39.52,0.09,59.28-0.04c9.43-0.06,10.24-0.93,10.42-10.27
		c0.16-8.68-0.03-17.36,0.08-26.05c0.05-3.87-0.18-7.86,2.68-11.07l0.1-0.11c1.47,0.15,1.82,1.04,1.82,2.41
		c-0.04,15.17,0.01,30.33-0.07,45.5c-0.03,4.89-1.2,5.87-6.33,6.01c-1.49,0.04-2.98-0.09-4.46,0.03c-1.72,0.14-4.46-0.86-4.86,0.69
		c-0.35,1.36,1.51,3.41,2.59,5.02c4.42,6.58,0.77,14.77-7.11,15.81c-1.04,0.14-2.49-0.48-2.77,0.98c-0.1,0.52,0.96,1.61,1.7,1.9
		c2.6,1.02,4.74,3.05,8,2.65c2.69-0.33,6.72,1.63,9.65,3.52c-1.69,1.48-3.75,1.91-5.86,1.69c-24.15-2.49-48.32,1.81-72.47-0.26
		c-1.06-0.3-1.89-0.91-2.49-1.83c0.19-1.34-0.44-3.47,1.89-3.18c6.34,0.8,13.02-2.14,19.07,1.73c3.17-2.86,7.37,2.35,10.84-1.54
		c1.02-1.14,5.31-1.06,6.69,0.12c4.52,3.84,8.28-0.49,12.35-0.51c1.32-0.01,2.86-2.06,3.88-3.47c1.6-2.22-1.5-2.45-1.97-3.86
		c-0.18-0.53-0.5-1.02-0.67-1.55c-0.54-1.76,1.51-4.57-1.58-5.19c-2.28-0.45-3.02,2.49-4.84,3.34c-0.25,0.12-0.59,0.03-0.89,0.03
		c-2.69-3.4-2.98-7.31-2.49-11.4c0.29-0.55,0.7-0.96,1.23-1.21c2.07-1,3.97,1.59,6,0.32c0.58-0.36,0.4-1.17-0.29-1.41
		c-2.52-0.85-4.65,0-6.55,1.68C1134.04,757.01,1129.99,757.58,1126.02,755.76z"/>
	<path class="st6" d="M1097.18,782.6c14.87-0.02,29.74-0.14,44.61,0.01c3.16,0.03,5.5-0.61,7.81-2.95c3.36-3.4,6.82-3.87,9.55,0.04
		c2.06,2.96,3.9,2.77,6.37,2.83c3.57,0.09,7.14,0.08,10.71,0.11c-0.14,1.35,0.6,3.25-1.64,3.46c-2.07,0.2-4.17,0.14-6.26,0.06
		c-4.16-0.16-7.99-0.2-11.26,3.49c-1.88,2.12-5.58,1.6-7.35-0.61c-2.51-3.13-5.56-2.86-8.79-2.88c-14.61-0.05-29.22-0.11-43.83-0.17
		C1096.15,784.84,1096.18,783.71,1097.18,782.6z"/>
	<path class="st14" d="M1086.61,730.43c-0.06-0.59-0.15-1.17-0.29-1.74c0.04-9.16,0.12-18.31,0.08-27.47
		c-0.01-2.19,0.6-3.15,2.97-3.11c5.61,0.09,11.22-0.07,16.83-0.12c1.17,0.12,2.35,0.24,3.52,0.36
		c-4.87,9.02-13.04,15.74-17.43,25.15C1091.06,726.11,1091.03,730.22,1086.61,730.43z"/>
	<path class="st6" d="M1138.46,755.69c1.76,3.99,2.43,8.13,1.73,12.46c-1.51,0.74-3.01,1.52-4.54,2.22
		c-6.28,2.91-11.45-0.38-11.56-7.28c-0.04-2.65,0.11-5.2,1.92-7.34c6.18-1.79,6.18-1.79,12.46-0.04L1138.46,755.69z"/>
	<path class="st15" d="M1097.18,782.6c-0.02,1.13-0.04,2.26-0.07,3.39c-0.58,0.05-1.18,0.25-1.72,0.13
		c-1.78-0.37-4.81,1.34-5.09-1.45c-0.4-4.01,3.5-1.32,5.11-2.44C1096.01,782.36,1096.6,782.48,1097.18,782.6z"/>
	<path class="st6" d="M1086.61,730.43c3.37-6.63,6.67-13.23,10.92-19.43c3.44-5.01,7.62-8.94,12.2-12.66
		c22.75-0.03,45.51-0.07,68.26-0.1c0.02,14.32,0.05,28.65,0.04,42.97c0,7.19-0.03,7.22-6.86,7.22c-22.98,0.01-45.96,0.03-68.93-0.01
		c-5.02-0.01-10.05-0.24-15.07-0.37c-1.45-5.22-0.37-10.56-0.71-15.83C1086.42,731.62,1086.56,731.02,1086.61,730.43z"/>
	<path class="st6" d="M1149.24,762.43c0.08-4.98,3.01-8.16,7.87-8.55c3.17-0.26,8.23,5.26,8.42,8.88c0.24,4.6-4.42,9.48-9.35,9.05
		C1151.82,771.43,1149.16,767.99,1149.24,762.43z"/>
	<path class="st6" d="M1115.25,763.23c-0.07,5.21-3.87,8.96-8.68,8.56c-3.62-0.3-7.54-4.9-7.58-8.9c-0.04-4.55,4.36-9.29,8.38-9.01
		C1112.47,754.23,1115.32,757.62,1115.25,763.23z"/>
	<path class="st11" d="M1138.48,755.72c-0.62-4.11,3.01-4.71,5.31-5.26c2.42-0.57,3.47,2.71,5.29,4.09
		c-2.31,1.47-0.82,4.37-2.29,6.08c-0.52,0.61-1.54,0.57-2.34-0.05c-2.05-1.57-3.28-4.14-5.99-4.89L1138.48,755.72z"/>
	<path class="st16" d="M1136.77,763.08c-0.08,3.44-0.56,4.04-3.36,2.46c-2.08-1.17-4.01-0.51-5.95-0.95
		c-0.88-0.2-1.51-0.74-1.4-1.87c0.1-1.07,0.65-1.62,1.61-1.67c1.15-0.06,2.32-0.32,3.41,0.54c0.43,0.34,1.24,1.99,1.83,0.33
		c0.51-1.42,0.56-3.14,2.59-2.58C1137.43,759.9,1136.59,761.79,1136.77,763.08z"/>
	<path class="st17" d="M1117.06,723.25c0-4.19-0.04-8.38,0.02-12.57c0.02-1.62,1.42-2.06,2.47-1.55c8.5,4.15,16.95,8.4,25.35,12.75
		c1.28,0.66,1.08,2.32-0.09,2.92c-8.4,4.34-16.85,8.58-25.36,12.71c-0.98,0.47-2.4-0.02-2.4-1.7
		C1117.05,731.63,1117.06,727.44,1117.06,723.25z"/>
	<path class="st18" d="M1157.37,760.96c1.19,0.06,2.36,0.01,3.48,0.23c0.38,0.08,0.76,0.8,0.9,1.29c0.27,0.93-0.2,1.84-1.03,2.04
		c-1.1,0.27-2.37,0.36-3.45,0.09c-2.02-0.52-5.68,1.43-5.84-1.42C1151.2,758.5,1155.58,762.39,1157.37,760.96z"/>
	<path class="st19" d="M1107.68,764.6c-1.16,0-2.33,0.09-3.48-0.03c-0.88-0.09-1.46-0.59-1.52-1.66c-0.06-1.1,0.56-1.75,1.37-1.8
		c2.6-0.15,5.22-0.15,7.82-0.06c0.86,0.03,1.4,0.65,1.49,1.7c0.1,1.14-0.63,1.76-1.34,1.87c-1.41,0.22-2.89,0.07-4.34,0.07
		C1107.68,764.66,1107.68,764.63,1107.68,764.6z"/>
</g>
<g>
	<path class="st20" d="M1964.94,365.05c-3.24-0.04-6.47-0.08-9.71-0.1c-0.78-0.01-1.22-0.34-1.11-1.13c0.07-0.51,0.4-0.78,0.98-0.78
		c1.29,0,2.58-0.08,3.87-0.12c0.44-0.7,0.22-1.63,0.74-2.29c1.83-2.34,0.43-2.52-1.56-2.42c-1.5,0.07-2.91-0.32-4.18-1.14
		c-0.33-0.02-0.65-0.07-0.97-0.15c-6.43-0.94-12.9-0.38-19.34-0.33c-3.28,0.03-4.67-0.93-4.13-4.2c0.39-2.35-1.02-5,1.21-7.04
		c5.38-1.56,10.8-1.01,16.23-0.37c2.26,0.74,4.6,0.62,6.92,0.62c15.3,0.02,30.61-0.03,45.91,0.03c2.69,0.01,5.44,0,6.29,3.5
		c1.06,4.38-0.83,7.05-5.54,7.21c-6.65,0.23-13.31,0.02-19.96,0.1c-1.79,0.02-3.68-0.44-5.26,0.8c-0.27,2.57,1.73,3.31,3.41,4.31
		c1.09,0.65,2.76,0.99,2.44,2.68c-0.35,1.84-2.12,1.98-3.56,2.03C1973.36,366.38,1969.01,367.08,1964.94,365.05z"/>
	<path class="st6" d="M1964.94,365.05c4.98-0.03,9.96-0.07,14.94-0.08c0.59,0,0.93-0.24,1.07-0.74c0.14-0.53-0.21-1.24-0.58-1.15
		c-3.67,0.9-5.3-1.52-6.88-4.08c-0.42-0.68-1.36-0.98-1.45-1.92c1.39-1.12,3.06-1.07,4.7-1.07c7.72-0.01,15.44-0.03,23.16,0.01
		c1.45,0.01,3-0.22,4.13,1.07c-0.35,1.06,0.75,2.64-1.46,3.06c-0.95,0.18-1.68,1.5-2.53,2.28c-2.99,2.73-8.2,4.64-12.29,5.71
		c-3.89,1.02-7.72,0.96-11.58,0.8c-3.13-0.13-6.27-0.7-9.23-1.94C1966,366.6,1965.29,366.02,1964.94,365.05z"/>
	<path class="st6" d="M1959.95,308.97c3.63-4.48,8.68-6.17,14.09-6.9c2.6-0.35,5.28-0.08,7.93-0.08c2.9,0,5.57,0.67,8.4,1.51
		c3.8,1.13,6.65,3.24,9.61,5.48c-1.4,1.55-3.29,1.4-5.1,1.41c-9.95,0.06-19.9,0.06-29.85,0
		C1963.23,310.4,1961.33,310.54,1959.95,308.97z"/>
	<path class="st6" d="M2007.01,316.98c3.5,1.66,3.6,5.42,4.84,8.35c0.95,2.24,1.04,4.87,1.95,7.26c0.49,1.3,0.56,3.08,0.08,4.36
		c-1.58,4.27-1.51,8.95-3.74,13.12c-0.87,1.63-1.59,3-3.13,3.93c-1.83-2.15-0.94-4.78-1.14-7.17c-0.7-8.58-0.23-17.18-0.26-25.78
		C2005.61,319.57,2005.74,318.07,2007.01,316.98z"/>
	<path class="st21" d="M2004.03,357.09c-10.66,0-21.33-0.01-31.99-0.01c0.38-2.28,2.1-2.09,3.77-2.09
		c8.13,0.02,16.25,0.01,24.38,0.01c4.85,0,4.85,0,4.79-5.02c-0.01-0.5-0.03-1,0-1.49c0.07-1-0.29-1.53-1.37-1.49
		c-1.16,0.04-2.32,0.01-3.48,0.01c-16.75,0-33.5,0.02-50.25-0.04c-0.94,0-2.41,0.94-2.86-0.9c0.23-0.22,0.46-0.45,0.68-0.67
		c2.32-1.24,4.86-0.96,7.34-0.96c13.65-0.04,27.3-0.01,40.95-0.02c1.83,0,3.66,0.06,5.45-0.39c2.49-0.9,2.13-3.03,2.14-4.98
		c0.02-6.92-0.15-13.84,0.08-20.75c0.11-3.31-0.75-5.72-3.78-7.21c1.56-3.04,3.97-1.17,6.08-1.05l0.02,0.02
		c1.07,5.9,0.46,11.86,0.43,17.78c-0.05,9.41,0.58,18.84-0.37,28.24l0.01-0.02c-0.42,0.24-0.74,0.58-1.08,0.91
		C2004.65,357.01,2004.34,357.06,2004.03,357.09z"/>
	<path class="st22" d="M1931.09,345.96c-0.29,0.12-0.73,0.18-0.82,0.39c-0.18,0.42-0.24,0.93-0.23,1.4
		c0.06,2.63,0.15,5.26,0.23,7.89c2.58,0.79,5.23,0.26,7.84,0.33c4.32,0.1,8.65,0.02,12.97,0.04c0.76,0,1.72-0.35,1.93,0.89
		c-7.13,0.03-14.26,0.09-21.39,0.09c-2.5,0-2.56-0.05-2.56-2.32c-0.02-14.1-0.03-28.2,0.01-42.31c0.01-2.8,0.56-3.29,3.55-3.29
		c8.12,0,16.25,0.07,24.37,0.11c-0.06,1.96-1.61,2.36-3.02,2.92c-5.25,0.91-10.55,0.48-15.83,0.42c-4-0.05-5.68,1.44-5.6,5.51
		c0.14,7.1,0.07,14.21,0.02,21.32C1932.54,341.64,1932.77,344.02,1931.09,345.96z"/>
	<path class="st23" d="M1955.01,310.99c0.08-0.69,0.41-1.02,1.16-0.98c0.47,0.02,0.79-0.31,0.82-0.83c0.99-0.07,1.98-0.14,2.96-0.21
		c13.34,0.01,26.69,0.02,40.03,0.02c1.58,0.02,3.16,0.06,4.74,0.04c0.73-0.01,1.19,0.19,1.23,0.99c-1.57,0-3.13,0.02-4.7-0.02
		c-0.72-0.02-1.18,0.19-1.26,0.96c-1.07,1.29-2.59,1.41-4.08,1.42c-12.44,0.08-24.88,0.11-37.32-0.01c-1-0.01-1.98-0.2-2.87-0.7
		C1955.48,311.45,1955.24,311.22,1955.01,310.99z"/>
	<path class="st23" d="M2006.04,356.07c-0.02-15.34-0.04-30.68-0.07-46.02c0.8,0.05,0.98,0.52,0.98,1.25
		c-0.01,1.9,0.03,3.79,0.06,5.69c0,12.34,0,24.68,0.01,37.03C2006.87,354.78,2007.34,355.84,2006.04,356.07z"/>
	<path class="st6" d="M1953.98,357.04c2.96-0.02,5.93-0.05,8.89-0.04c0.3,0,0.59,0.2,0.89,0.31c-0.12,0.25-0.2,0.53-0.38,0.73
		c-1.46,1.63-2.93,3.25-4.4,4.87C1957.82,360.52,1955.12,359.45,1953.98,357.04z"/>
	<path class="st23" d="M2004.96,356.96c0.03-0.7,0.41-0.98,1.08-0.91C2005.98,356.71,2005.65,357.05,2004.96,356.96z"/>
	<path class="st24" d="M1931.09,345.96c-0.03-10.92-0.01-21.84-0.12-32.76c-0.02-1.73,0.42-2.24,2.19-2.22
		c7.28,0.09,14.56,0.02,21.84,0.01l-0.04,0.11c0.55,1.09,0.13,2.08-0.29,3.07c-6.61,8.43-8.44,18.05-7.08,28.46
		c0.15,1.14,0.31,2.32-0.61,3.27l0.04,0.15C1941.71,346.03,1936.4,345.99,1931.09,345.96z"/>
	<path class="st21" d="M2002.96,351.69c-0.26,1.35-0.97,2.23-2.52,2.32c-1.84,0.11-3.24-0.51-3.42-1.96
		c-0.11-0.89-0.6-2.25,0.36-2.75c1.28-0.66,2.89-0.59,4.22-0.03C2002.41,349.62,2003.36,350.37,2002.96,351.69z"/>
	<path class="st6" d="M1967.73,352.01c-2.96,0-5.93,0.01-8.89-0.02c-0.26,0-0.52-0.33-0.77-0.5c0.26-0.17,0.53-0.5,0.79-0.5
		c6.09-0.03,12.18-0.03,18.27,0.01c0.26,0,0.52,0.33,0.79,0.51c-0.27,0.17-0.54,0.48-0.81,0.49
		C1973.99,352.02,1970.86,352.01,1967.73,352.01z"/>
	<path class="st6" d="M1993.32,351.14c0.22,0.12,0.42,0.23,0.62,0.35c-0.1,0.11-0.23,0.31-0.31,0.3c-0.23-0.05-0.43-0.19-0.64-0.3
		C1993.1,351.38,1993.2,351.27,1993.32,351.14z"/>
	<path class="st6" d="M1987.48,351c0.11,0.23,0.25,0.43,0.3,0.66c0.02,0.08-0.19,0.21-0.3,0.31c-0.1-0.21-0.25-0.42-0.3-0.64
		C1987.17,351.24,1987.37,351.11,1987.48,351z"/>
	<path class="st6" d="M1946.98,345.9c-1.79-5.75-0.71-11.66-0.96-17.49c1.73-2.65,1.46-6.08,3.59-8.64c1.71-2.05,2.95-4.48,4.4-6.75
		c1.65-1.33,3.55-1.52,5.6-1.51c13.26,0.05,26.52,0.14,39.78-0.04c3.94-0.05,5.23,1.32,5.13,5.2c-0.22,8.28-0.05,16.57-0.08,24.86
		c-0.01,1.6,0.45,3.41-1.47,4.39C1984.31,345.91,1965.65,345.91,1946.98,345.9z"/>
	<path class="st6" d="M2002.98,345.91c0.34-1.04,1.07-1.83,1.05-3.11c-0.1-9.13-0.03-18.26-0.07-27.39
		c-0.01-2.77-0.64-3.37-3.5-3.38c-13.94-0.03-27.89,0.07-41.83-0.11c-1.78-0.02-2.92,1.5-4.62,1.1c0.32-0.64,0.63-1.28,0.95-1.92
		c15.01-0.04,30.02-0.09,45.03-0.13c4.98,0.07,4.98,0.07,4.98,4.85c0,9.45-0.03,18.89,0.03,28.34
		C2005.02,345.76,2004.44,346.23,2002.98,345.91z"/>
	<path class="st6" d="M2001.84,351.59c-0.64,0.47-0.9,1.46-1.91,1.36c-1.23-0.12-0.94-1.09-0.98-1.85
		c-0.05-0.86,0.52-1.22,1.22-1.09C2000.97,350.18,2001.44,350.88,2001.84,351.59z"/>
	<path class="st25" d="M1953.7,339.11c-0.43-0.4-0.83-0.7-1.15-1.07c-0.94-1.09,0.35-1.44,0.8-1.74
		c6.82-4.47,13.69-8.88,20.56-13.29c2.15-1.38,4.34-2.68,6.49-4.04c0.42-0.26,0.73-0.77,1.17-0.92c0.97-0.31,1.59,0.4,1.97,1.11
		c0.65,1.21-0.59,0.63-0.95,0.89c-8.96,6.51-18.35,12.38-27.61,18.45C1954.59,338.76,1954.13,338.91,1953.7,339.11z"/>
	<path class="st26" d="M1971.94,316.72c0.22,1.03-0.56,1.54-1.2,1.96c-3.35,2.16-6.76,4.23-10.11,6.38
		c-1.22,0.78-2.13,1.92-3.56,2.52c-1.26,0.52-1.36-0.47-1.79-0.91c-0.53-0.54-0.26-1.18,0.39-1.59c4.57-2.95,9.14-5.91,13.72-8.83
		C1970.27,315.67,1971.79,316.01,1971.94,316.72z"/>
	<path class="st27" d="M1964.12,340.58c0.71,0.3,0.34,0.25,0.16,0.04c-0.33-0.38-0.4-0.87-0.05-1.31c0.21-0.26,0.42-0.54,0.69-0.71
		c4.42-2.88,8.86-5.74,13.29-8.61c0.27-0.18,0.57-0.32,0.81-0.53c0.86-0.75,1.02,0.3,1.46,0.57c0.6,0.37,0.25,0.76-0.08,1.11
		c-0.9,0.95-2.01,1.57-3.12,2.26c-3.41,2.12-6.67,4.48-9.96,6.79C1966.63,340.68,1966.05,341.27,1964.12,340.58z"/>
</g>
<g>
	<path class="st9" d="M790.41,471.3c-11.08-8.85-21.8-18.1-29.15-30.44c-6.07-10.18-10.14-21.02-10.4-33.16
		c-0.31-14.75,1.11-28.78,8.2-42.34c11.53-22.07,29.9-35.01,52.72-42.53c4.24-1.4,9.24-0.62,13.89-0.58
		c7.92,0.06,15.85,0.34,23.77,0.52c40.93,4.07,67.57,48.51,62.64,86.57c-0.48,3.71-0.85,7.41-3.91,10.11
		c-12.08,5.09-25.13,5.88-37.84,7.75c-10.19,1.5-14.34,5.79-14.42,16.2c-0.09,11.4,2.6,23.16-2.6,34.23
		C835.91,488.66,809.37,485.98,790.41,471.3z"/>
	<path class="st6" d="M908.27,417.73c0.09-7.88,0.07-15.77,0.28-23.65c0.41-15.15-6.73-27.54-14.45-39.66
		c-10.43-16.37-26.38-24.81-44.29-30.34c-0.23-0.07-0.25-0.85-0.36-1.3c7.02-0.15,14.03-0.52,21.04-0.42
		c35.33,0.5,61.04,17,78.37,47.37c8.9,15.61,14.01,32.43,12.84,50.31c-1.67,25.54-11.07,48.04-29.84,66.15
		c-1.9,1.83-3.86,2.3-6.21,2.32c-5.91-5.56-4.14-12.91-4.35-19.68c-0.32-10.21,0.08-20.44-0.18-30.65
		c-0.15-5.78-0.99-11.23-7.51-13.51C910.85,423.09,907.46,422.01,908.27,417.73z"/>
	<path class="st6" d="M902.65,505.22c-11.84,3.57-23.72,6.88-36.3,5.7c-7.65-10.03-3.89-21.66-4.04-32.52
		c-0.5-36.52-0.19-36.52,35.7-41.85c20.22-3,22.82-0.78,23.05,19.81c0.05,4.67-0.28,9.36,0.07,14.01
		c0.89,11.96-1.31,22.28-13.01,28.55C905.72,500.2,904.25,502.91,902.65,505.22z"/>
	<path class="st10" d="M902.65,505.22c0.31-2.74-4.53-4.33-2.04-7.26c2.58-3.05,4.63-7.55,9.73-6.78c5.93,0.89,6.93-1.88,6.82-7.06
		c-0.29-13.53-0.05-27.07-0.12-40.61c-0.03-5.27-2.1-7.24-6.49-5.64c-9.43,3.44-19.26,4.39-29.09,5.52
		c-1.81,0.21-3.7,0.07-5.45,0.51c-9.69,2.42-9.73,2.47-9.73,12.41c-0.01,18.2,0.05,36.41,0.07,54.61
		c-9.61,10.06-14.7,10.75-23.43,3.35c-2.04-1.73-1.95-3.95-2.13-6.19c-0.55-1.89-0.5-4.15,1.07-5.04
		c12.25-6.99,13.04-18.74,13.18-30.85c0.05-10.76,0.08-21.49,0.02-32.23c-0.04-8.68,4.32-12.75,12.68-13.39
		c15.57-1.19,30.64-6.43,46.45-5.64c1.39-0.01,2.78-0.07,4.17-0.03c6.82,0.22,6.93,0.23,6.98,6.44c0.15,20.38,0.21,40.77,0.31,61.15
		c-0.08,0.92-0.2,1.84-0.23,2.77C924.88,507.79,918.17,511.91,902.65,505.22z"/>
	<path class="st6" d="M857.9,474.3c0.02,6.86-0.06,13.72,0.08,20.58c0.07,3.26-0.82,4.45-4.46,5.04
		c-5.09,0.82-10.44,2.42-12.73,8.16c-1.87,0-4.07,0.66-5.54-0.1c-14.42-7.45-29.3-14.37-39.86-27.38c-2.17-2.68-3.34-6.17-4.97-9.29
		c4.34-0.82,8.31,1.88,11.39,3.43c13.01,6.54,26.6,4.89,40.16,5.2c3.86,0.09,6.33-3.86,10.27-2.83
		C853.8,475.53,854.65,472.5,857.9,474.3z"/>
	<path class="st6" d="M829.21,423.79c-14.09-0.07-22.22-8.72-22.14-23.55c0.08-14.33,10.23-24.89,23.33-24.27
		c10.83,0.52,24.85,13.77,24.05,24.71c-0.38,5.16-2.21,11.18-7.07,15.61C839.5,423.45,839.85,423.85,829.21,423.79z"/>
	<path class="st6" d="M857.9,474.3c-1.89,0.94-3.78,1.87-5.67,2.81c0.03-13.11,0.01-26.22,0.1-39.33
		c0.06-8.83,3.07-13.58,11.39-13.85c15.14-0.47,29.45-6.06,44.55-6.21c0.31,4.15,3.53,2.91,5.92,3.2c-0.12,1.59-1.16,2.81-2.53,2.68
		c-16.15-1.61-31.02,6.75-47.12,5.94c-4.89-0.25-6.7,3.52-6.63,8.44C858.09,450.08,857.92,462.19,857.9,474.3z"/>
	<path class="st6" d="M871.91,459.79c0-3.07,0.07-5.41-0.02-7.75c-0.07-1.73,1.04-2.4,2.34-2.92c0.41-0.16,0.93-0.08,1.39-0.05
		c5.05,0.3,10.17-1.04,15.17,0.54c-1.36,5.21-6.47,7.22-9.42,11.08c-0.56,0.74-1.31,1.34-2,1.97c-2.07,1.9-5.53,5.69-6.01,5.35
		C870.36,465.85,872.39,462.13,871.91,459.79z"/>
</g>
<g>
	<path class="st6" d="M535.19,696.96c7.63-9.98,18.9-13.97,30.04-18.14c0.73-0.27,1.6-0.31,2.39-0.28
		c8.1,0.34,16.22,0.49,24.29,1.21c2.78,0.25,5.5,1.84,8.13,3.07c6.34,2.97,12.74,6.04,17.36,11.45
		c6.38,7.47,12.44,14.96,14.57,25.24c1.21,5.86,2.68,11.43,2.32,17.51c-0.99,16.45-7.02,30.47-19.75,41.07
		c-6.15,5.12-12.85,9.75-21.22,10.78c-3.44-3.8-2.32-8.45-2.14-12.79c0.89-21.99,1.84-43.99,3.02-65.97
		c0.32-5.95-1.52-8.03-7.27-8.13c-13.94-0.26-27.85-1.26-41.78-1.86C541.58,699.97,537.77,700.32,535.19,696.96z"/>
	<path class="st7" d="M535.19,696.96c18.35,0.9,36.71,1.78,55.06,2.7c6.57,0.33,6.94,0.73,6.65,7.42
		c-1.17,27.27-2.39,54.53-3.58,81.8c-0.13,0.55-0.27,1.09-0.4,1.63c-1.88,1.77-3.8,3.03-6.06,0.56c-0.72-0.72-1.43-1.49-2.35-1.95
		c-0.3-0.15-0.78-1.09-1.23-0.08c0.48,0.19,0.92,0.45,1.37,0.8c3.26,3.2,1.4,4.81-1.86,5.57c-6.46,1.5-10.4-1.68-12.87-7.34
		c-1.67-8.84,0.1-17.67,0.12-26.51c0.02-8.49-0.8-9.6-9.25-10.17c-10.22-0.69-20.47-0.93-30.71-1.49c-3.04-0.17-6.1-0.35-8.91-1.74
		c-6.7-6.9-7.22-22.5-1.05-30.13c0.96,0.43,1.65,1.13,2.06,2.1c1.1,2.95,0.74,6.03,0.72,9.08c-0.08,9.54,0.34,10.1,9.49,10.62
		c10.01,0.57,20.04,0.79,30.04,1.44c5.82,0.38,8.96-1.37,8.97-7.73c0.01-6.4,0.37-12.81,0.85-19.19c0.43-5.77-2.19-7.95-7.71-8.26
		c-10.55-0.6-21.16-0.33-31.66-1.91c-0.95-0.27-1.8-0.72-2.58-1.32c-3.41-6.31,3.07-3.96,4.95-5.64
		C535.23,697.22,535.19,696.96,535.19,696.96z"/>
	<path class="st8" d="M588.07,790.16c0.16,1.09,0.32,2.33,1.76,0.98c0.95-0.9,2.02-0.61,3.09-0.62c0.34,2.6,0.38,4.68-3.01,5.7
		c-1.99,0.6-3.78,0.57-5.66,0.49c-27.09-1.18-54.18-2.42-81.27-3.64c-1.4-0.06-2.9,0.2-4.16-0.24c-1.53-0.53-2.91-1.66-2.99-3.55
		c-0.05-1.39,0.09-2.79,0.15-4.19c1.24-27.37,2.48-54.74,3.72-82.11c0.04-0.84,0.04-1.68,0.13-2.51c0.41-3.78,1.37-4.8,5.25-4.65
		c10.06,0.38,20.11,0.93,30.16,1.41c-0.19,1.23-0.87,1.85-2.13,1.58c-2.58-0.56-3.27,0.78-3.12,3.02
		c-3.93,2.56-7.11,5.48-6.74,10.83c0.14,2.11-0.46,4.29-2.39,5.73c-1.32,0.06-1.79,0.77-1.83,2.07c-0.18,5.18-0.23,10.38-0.72,15.53
		c-0.4,4.17,0.13,7.9,3,11.1c0.51,0.84,0.73,1.75,0.66,2.73c-0.59,8.89-0.92,17.81-1.21,26.71c-0.28,8.67,0.68,9.68,9.14,10.29
		c7.78,0.56,15.59,0.58,23.37,1.24c2.13,0.17,4.28,0.27,6.34,0.93c3.47,1.3,6.74,5.02,10.69,0.9c0.34-0.14,0.68-0.26,1.02-0.39
		c1.18,0.34,2.97-0.47,3.3,1.54c0.35,2.12,1.48,3.35,3.58,3.89c2.9,0.75,5.24-0.84,7.57-1.93c0.96-0.45-0.37-1.02-1.01-1.12
		c-0.9-0.14-1.53-0.48-1.64-1.47C584.66,788.58,586.35,789.12,588.07,790.16z"/>
	<path class="st6" d="M531.53,702.2c13.11,0.55,26.23,1.07,39.34,1.65c4.18,0.19,4.26,0.27,4.1,4.07
		c-0.47,11.16-1.05,22.32-1.46,33.48c-0.08,2.17-0.83,2.86-2.97,2.75c-15.9-0.78-31.8-1.53-47.71-2.13
		c-2.85-0.11-3.04-1.41-2.87-3.67c0.45-6.12,0.74-12.25,1.09-18.38C523.23,713.28,523.39,705.39,531.53,702.2z"/>
	<path class="st6" d="M521.17,748.52c0.02-0.48,0.06-0.96,0.12-1.44c15.07,0.67,30.14,1.31,45.21,2.03c5.96,0.28,6.54,0.93,6.3,6.9
		c-0.46,11.16-0.99,22.32-1.5,33.49l0.02-0.02c-2.89,4.18-6.37,3.63-10.08,1.26c-2.23-0.2-4.46-0.41-6.68-0.61
		c-9.47-6.18-19.1-12.18-25.38-22.03C525.33,762.05,521.15,756.14,521.17,748.52z"/>
	<path class="st6" d="M586.3,708c-2.15-0.74-5.83,0.87-5.83-1.69c0-4.41,3.86-1.06,5.9-1.67c1.45-0.43,3.25,0.2,4.86,0.51
		c0.27,0.05,0.55,0.91,0.51,1.38c-0.03,0.46-0.42,1.26-0.71,1.29C589.39,707.98,587.73,707.96,586.3,708z"/>
	<path class="st6" d="M584.39,738c1.12,0.05,2.25,0,3.34,0.19c0.84,0.15,2.56-0.5,2.14,1.22c-0.21,0.87-1.53,2.03-2.41,2.09
		c-2.49,0.17-5.02-0.09-7.52-0.35c-0.8-0.08-1.35-0.73-1.25-1.77c0.1-1.02,0.65-1.5,1.52-1.53c1.39-0.04,2.79,0.1,4.19,0.16
		C584.39,738.01,584.39,738,584.39,738z"/>
	<path class="st6" d="M583.91,729.59c2.51,0.11,3.37,0.05,4.18,0.22c0.85,0.18,2.56-0.5,2.16,1.22c-0.2,0.86-1.53,2.01-2.41,2.07
		c-2.49,0.17-5.02-0.14-7.53-0.3c-0.24-0.01-0.56-0.18-0.67-0.37c-0.26-0.44-0.58-0.96-0.55-1.42c0.03-0.46,0.44-1.24,0.73-1.27
		C581.74,729.58,583.67,729.59,583.91,729.59z"/>
	<path class="st6" d="M583.82,724.58c-0.84-0.04-1.67-0.11-2.51-0.11c-1.4-0.01-1.99-0.75-1.82-2.06c0.12-0.9,0.71-1.38,1.69-1.33
		c1.95,0.1,3.94-0.02,5.84,0.34c1.21,0.23,3.73-1.16,3.41,1.42c-0.19,1.52-2.2,2.3-4.11,1.88
		C585.52,724.55,584.66,724.62,583.82,724.58z"/>
	<path class="st6" d="M584.02,716.14c-1.11-0.05-2.24,0-3.32-0.21c-0.35-0.07-0.71-0.78-0.83-1.26c-0.24-0.92,0.3-1.79,1.07-1.95
		c1.06-0.21,2.23-0.05,3.33,0.11c2.37,0.36,5.1-0.69,7.03,1.2C592.08,714.81,587.77,716.39,584.02,716.14z"/>
	<path class="st6" d="M588.07,790.16c-1.66,0.08-3.32,0.16-4.99,0.25c-2.01-1.27-6.69,1.12-6.15-2.57c0.43-2.92,4.66-0.66,7.16-0.95
		C586.33,786.64,587.45,788.2,588.07,790.16z"/>
	<path class="st6" d="M582.36,766.45c-0.83-0.04-1.66-0.08-2.5-0.12c-1.11-0.05-2.24-0.08-2.27-1.64c-0.04-1.51,0.88-1.79,2.12-1.73
		c2.5,0.13,4.99,0.26,7.49,0.37c0.79,0.04,1.81,0.22,1.67,1.05c-0.11,0.66-1.02,1.27-1.69,1.74
		C585.67,767.18,583.97,766.28,582.36,766.45z"/>
	<path class="st6" d="M584.37,746.37c1.84,0.45,5.23-0.48,5.17,1.08c-0.08,2.24-2.97,2.9-5.35,2.28c-1.95-0.51-5.57,1-5.58-1.54
		C578.59,743.8,582.55,747.54,584.37,746.37z"/>
	<path class="st6" d="M583.62,754.76c1.11,0.05,2.24,0,3.32,0.18c0.84,0.15,2.54-0.47,2.15,1.21c-0.2,0.86-1.53,2-2.41,2.06
		c-2.47,0.17-4.99-0.09-7.47-0.33c-0.8-0.08-1.36-0.71-1.26-1.75c0.1-1,0.63-1.5,1.51-1.52c1.38-0.03,2.77,0.1,4.16,0.16
		C583.62,754.77,583.62,754.76,583.62,754.76z"/>
	<path class="st6" d="M581.46,774.8c-1.11-0.05-2.27,0.09-3.31-0.21c-0.8-0.23-1.12-1.2-0.89-2.04c0.13-0.46,0.6-1.17,0.93-1.18
		c1.66-0.06,3.34-0.03,4.98,0.18c1.86,0.23,4.01-0.59,5.51,1.02c0.63,0.68-3.67,2.35-6.4,2.26
		C582.02,774.83,581.74,774.81,581.46,774.8z"/>
	<path class="st6" d="M583.21,779.93c1.09,0.05,2.17,0.13,3.26,0.14c0.85,0,1.42,0.36,1.78,1.11c-0.73,0.24-1.46,0.68-2.2,0.68
		c-2.45,0-4.89-0.22-7.34-0.24c-0.93,0-1.37-0.42-1.71-1.15c0.71-0.25,1.41-0.67,2.13-0.7c1.35-0.07,2.72,0.09,4.07,0.15
		C583.22,779.92,583.22,779.93,583.21,779.93z"/>
	<path class="st6" d="M507.86,775.05c2.06-0.13,4.71,0.32,4.61,2.32c-0.07,1.52-3.08,1.94-4.98,2.48c-2.26,0.64-3.2-1.89-5.29-1.96
		c-1.13-0.04-0.27-1.22,0.2-1.77C503.93,774.33,505.97,775.05,507.86,775.05z"/>
	<path class="st6" d="M508.62,754.68c-1.96-0.09-3.36-0.06-4.73-0.25c-0.84-0.12-1.4-0.67-1.28-1.72c0.11-0.97,0.59-1.52,1.5-1.54
		c1.39-0.03,2.82-0.12,4.16,0.16c1.98,0.42,5.62-0.95,5.64,1.52C513.93,757.42,509.82,753.15,508.62,754.68z"/>
	<path class="st6" d="M509.14,734.51c1.7,1.23,5.85-1.94,5.49,2.3c-0.22,2.67-3.74,1.37-5.46,1c-1.94-0.42-5.95,2.13-5.61-2.09
		C503.77,733.1,507.18,734.99,509.14,734.51z"/>
	<path class="st6" d="M509.71,743.02c1.45,0.55,4.58-1.16,4.61,1.53c0.04,3.82-3.31,1.4-5.12,1.7c-1.61,0.27-3.33,0.01-4.98-0.21
		c-0.83-0.11-1.37-0.75-1.22-1.77c0.14-0.94,0.6-1.5,1.54-1.48C506.2,742.83,507.87,742.94,509.71,743.02z"/>
	<path class="st6" d="M510.36,726.17c1.67,0.61,4.67-1.04,4.76,1.61c0.14,3.85-3.25,1.83-4.92,1.73c-2.16-0.13-6.24,1.2-6.17-1.49
		C504.15,724.24,508.19,726.83,510.36,726.17z"/>
	<path class="st6" d="M510.15,721.4c-2.29-0.84-5.85,0.81-5.81-1.85c0.07-4.14,3.8-1.33,5.76-1.55c1.75-0.2,5.35-1.17,5.34,1.49
		C515.41,723.96,511.39,719.63,510.15,721.4z"/>
	<path class="st6" d="M509.89,712.83c-1.09-0.05-2.17-0.09-3.26-0.15c-1.1-0.06-2.16-0.18-2.17-1.69c-0.01-1.46,0.89-1.77,2.09-1.72
		c2.71,0.12,5.43,0.22,8.14,0.42c0.86,0.06,1.32,0.65,1.36,1.6c0.04,0.98-0.51,1.65-1.28,1.7c-1.62,0.09-3.25-0.1-4.88-0.17
		C509.89,712.82,509.89,712.83,509.89,712.83z"/>
	<path class="st6" d="M510.73,704.46c-1.68-1.18-5.9,1.99-5.59-2.24c0.18-2.54,3.69-0.85,5.68-1.09c1.37-0.16,2.79,0.05,4.17,0.18
		c0.91,0.09,1.38,0.63,1.42,1.61c0.05,1.03-0.55,1.62-1.37,1.68C513.67,704.7,512.27,704.53,510.73,704.46z"/>
	<path class="st6" d="M508.16,759.71c1.39,0.06,2.78,0.1,4.16,0.2c0.96,0.07,1.35,0.69,1.4,1.61c0.06,0.99-0.51,1.68-1.34,1.69
		c-2.22,0.04-4.44-0.17-6.66-0.22c-1.62-0.04-3.02-1.13-3.06-2.3c-0.08-2.18,1.93-0.87,3-1.08c0.8-0.15,1.66,0.04,2.49,0.08
		C508.16,759.69,508.16,759.7,508.16,759.71z"/>
	<path class="st6" d="M506.37,786.74c-1.65-0.49-4.91,0.79-4.84-1.21c0.08-2.36,3.14-2.45,5.45-2.15c1.1,0.14,2.22,0.13,3.33,0.16
		c1.11,0.04,2.28-0.01,2.32,1.56c0.05,2.16-1.53,1.81-2.86,1.79C508.65,786.86,507.54,786.79,506.37,786.74z"/>
	<path class="st6" d="M508.67,771.52c-1.39-0.06-2.86,0.14-4.14-0.28c-0.94-0.31-2.12-1.33-2.29-2.2c-0.33-1.75,1.32-1.13,2.18-1.12
		c2.5,0.04,5,0.2,7.5,0.35c0.97,0.06,1.35,0.69,1.4,1.61c0.06,0.99-0.49,1.61-1.33,1.7c-1.09,0.11-2.22-0.06-3.33-0.11
		C508.68,771.49,508.67,771.51,508.67,771.52z"/>
	<path class="st7" d="M561.24,790.73c3.4-0.1,6.96,1.09,10.08-1.26c0.29,2.94-1.23,4.6-3.97,4.88
		C564.58,794.64,561.9,794.25,561.24,790.73z"/>
</g>
</svg>
