<?xml version="1.0" encoding="utf-8"?>
<!-- Generator: Adobe Illustrator 24.0.2, SVG Export Plug-In . SVG Version: 6.00 Build 0)  -->
<svg version="1.1" id="Layer_1" xmlns="http://www.w3.org/2000/svg" xmlns:xlink="http://www.w3.org/1999/xlink" x="0px" y="0px"
	 viewBox="0 0 1800 1200" style="enable-background:new 0 0 1800 1200;" xml:space="preserve">
<style type="text/css">
	.st0{fill:#7F13BB;}
	.st1{fill:#9F24CE;}
	.st2{fill:#FCFAFC;}
	.st3{fill:#FAEBFC;}
	.st4{fill:#FBEBFD;}
	.st5{fill:#232C6E;}
	.st6{fill:#1A1F52;}
	.st7{fill:#FAFBFC;}
	.st8{fill:#EFF5FA;}
	.st9{fill:#EDF2F8;}
</style>
<g>
	<path class="st0" d="M1133.15,248.87c67.82,26.69,129.92,63.66,189.46,105.25c5.28,3.69,8.41,7,4.92,14.21
		c-35.39,73.31-65.71,149.64-131.13,203.86c-43.46,36.02-90.46,64.67-146.14,76.97c-20.31,4.49-40.88,7.08-61-1.61
		c7.02-21.44,3.64-43.89,6.35-65.76c1.3-10.51-0.27-21.74,8.11-30.35c8.83-2.1,16.19,2.89,24.06,5.22
		c19.46,5.76,37.88,3.88,56.48-6.38c-3.35-9.18-12.24-8.9-18.36-12.46c-20.78-12.09-46.5-15.52-62.7-35.7
		c9.33-30.08,18.28-60.28,27.86-90.28c4.12-12.9,8.56-25.76,18.73-35.52c4.41-1.99,8.21,0.59,13.53,2.89
		c-1.53-9.22-10.53-13.82-9.43-22.32c20.36-34.02,40.07-68.49,66.33-98.53C1123.78,254.3,1125.65,247.68,1133.15,248.87z"/>
	<path class="st1" d="M1004.8,552.82c-5.35,24.71-6.94,49.82-5.25,74.9c0.67,9.92-2.43,15.51-10.29,19.83
		c-52.33-13.44-68.04-56.13-78.42-101.26c-19.89-86.52-7.07-169.92,29.03-250.15c13.29-29.52,28.07-58.36,42.01-87.59
		c3.49-7.31,5.94-13.59,16.93-9.89c45.33,15.28,91.4,28.51,134.33,50.2c-24.05,30.54-47.98,61.15-65.95,95.91
		c-2.86,5.54-7.06,10.75-13.47,13.17c-8.67,2.45-14.71-3.21-21.21-7.09c-17.34-10.36-36.12-14.85-56.23-14.64
		c21.66,3.2,42.63,8.49,60.76,21.23c6.85,4.81,16.82,8.07,15.15,19.76c-17.11,31.75-26.96,65.98-34.84,100.94
		c-1.95,8.67-4.68,17.53-12.84,23.04c-5.09,5.25-9.32,0.07-13.81-1.23c-3.51-1.02-7.14-4.53-10.45-0.69
		c-2.85,3.3-0.91,7.4,0.32,10.99c3.37,9.83,8.38,18.71,15.16,26.66C999.71,541.58,1006.23,545.01,1004.8,552.82z"/>
	<path class="st2" d="M1004.8,552.82c-15.03-13.55-26.63-29.36-31.46-49.33c-1.11-4.6-3.97-10.38,1.76-13.85
		c4.51-2.73,8.45,1.07,12.37,3.03c5.68,2.84,11.37,5.68,17.05,8.52c24.48,16.2,51.64,26.83,78.56,37.99
		c4.53,1.88,11.3,2.41,11.2,8.98c-0.09,6.33-6.69,7.41-11.22,9.28C1056.3,568.54,1030.09,567.86,1004.8,552.82z"/>
	<path class="st3" d="M1135.1,404.54c33.85,1.69,63.94,15.91,87.95,42.86c3.45,3.87,7.6,8.67,2.03,13.22
		c-4.36,3.56-8.28-0.18-11.43-3.76c-21.64-24.52-48.84-37.51-81.49-39.11c-4.57-0.22-9.45-0.06-10.33-6.19
		C1121.14,406.78,1124.06,405.03,1135.1,404.54z"/>
	<path class="st4" d="M1052.2,377.21c-18.87-21.49-43.16-31.49-71.18-33.76c-6.15-0.5-15.95,0.74-15.44-7.26
		c0.61-9.47,10.71-6.89,17.33-6.34c26.38,2.21,49.37,13.29,70.82,28.11c4.3,4.66,8.88,9.1,12.83,14.04
		c2.94,3.67,8.71,7.65,3.66,12.94c-6.32,6.63-9.71-0.52-13.65-4.11C1055.17,379.55,1053.66,378.41,1052.2,377.21z"/>
		<animateMotion dur="5s" repeatCount="indefinite"
		 path="M90,50 C20,50 180,150 180,50 C180-50 20,150 20,50 z" />
</g>
<g>
	<path class="st5" d="M641.65,182.15c68.72-23.86,139.75-36.77,211.81-44.77c5.94-0.66,11.4-1.17,13.54,6.85
		c19.45,72.88,46.4,144.44,37.89,222.12c-7.23,66.09-25.24,128.07-68.36,180.5c-9.85,11.98-20.52,23.2-35.6,28.83
		c-20.2-26.97-47.68-48.85-57.89-82.8c8.07-10.41,20.89-8.82,31.66-12.32c7.36-2.39,15.17-3.37,22.58-5.61
		c4.54-1.37,12.01-0.1,12.16-6.92c0.13-5.69-6.4-7.7-10.92-9.78c-16.83-7.77-34.11-11.55-52.69-6.01
		c-7.96,2.37-15.3,7.31-24.14,6.56c-19.18-10.53-21.88-32.31-32.46-48.65c-9.7-14.98-14.65-32.73-21.11-49.49
		c-4.13-10.72-5.76-21.44,6.84-28.37c3.13-4.3,3.62-8.44-0.77-12.32c-16.81-3.6-24.87-14.6-26.77-31.02
		C643.32,253.47,632.96,218.33,641.65,182.15z"/>
	<path class="st6" d="M641.65,182.15c2.49,29.91,4.9,59.83,7.5,89.73c1.89,21.75,7.89,40.86,32.16,47.53
		c-10.93,5.35-22.79,1.98-34.16,3.55c-23.97,3.31-46.41,9.66-64.54,26.81c21.75-12.63,44.14-23.22,70.06-23.02
		c8.94,0.07,18.29-1.02,24.61,7.59c-5.56,5.66-10.62,11.42-7.02,20.31c14.35,35.4,29.36,70.46,50.76,102.36
		c0.8,10.58-9.25,14.66-13.36,22.3c-3.46,6.43-13.54,12.29-8.16,19.56c4.38,5.93,12.8-1.4,19.47-2.54
		c8.24-1.41,15.88-9.97,24.93-2.17c15.75,29.46,44.05,50.14,57.02,81.53c-36.42,19.72-71.37,12.89-104.86-6.99
		C614.4,520.2,562.63,447.72,532.41,359.23c-12.31-36.05-20.76-73.41-31.5-110.01c-2.38-8.1-2.16-12.56,6.7-16.37
		C551.55,213.95,595.34,194.73,641.65,182.15z"/>
	<path class="st7" d="M743.91,494.15c-12.91,3.8-25.81,7.64-38.73,11.38c-4.65,1.35-9.82,6-14.02,0.51
		c-3.75-4.9,0.43-9.94,2.57-14.33c6.57-13.49,16.75-24.27,27.3-34.7c31.14-18.41,61.56-15.89,91.15,3.56
		c3.92,2.58,10.51,4.5,8.62,11.18c-1.45,5.11-7.06,4.85-11.36,5.84C787.48,482.63,764.98,485.58,743.91,494.15z"/>
	<path class="st8" d="M850.93,282.32c-2.85,6.06-7.6,4.11-11.93,3.64c-32.21-3.48-61.34,3.97-86.79,24.48
		c-4.08,3.29-8.54,7.26-12.83,0.78c-3.53-5.33,1.42-8.26,4.72-10.92c28.02-22.55,60.04-31.47,95.66-27.28
		C845.17,273.67,851.91,274.03,850.93,282.32z"/>
	<path class="st9" d="M677.29,334.34c-32.34-8.75-60.81,0.54-87.55,18.5c-4.81,3.23-10.19,12.2-15.99,5.02
		c-6.96-8.61,3.93-11.89,8.81-15.52c29.49-21.9,62.89-27.97,98.75-22.93C686.7,326.2,684.62,330.98,677.29,334.34z"/>
		<animateMotion dur="5s" repeatCount="indefinite"
		 path="M20,50 C20,-50 180,150 180,50 C180-50 20,150 20,50 z" /> 
</g>
</svg>
